<?xml version="1.0" encoding="utf-8"?>
<!-- Generator: Adobe Illustrator 16.0.0, SVG Export Plug-In . SVG Version: 6.00 Build 0)  -->
<!DOCTYPE svg PUBLIC "-//W3C//DTD SVG 1.1//EN" "http://www.w3.org/Graphics/SVG/1.1/DTD/svg11.dtd">
<svg version="1.1" id="圖層_1" xmlns="http://www.w3.org/2000/svg" xmlns:xlink="http://www.w3.org/1999/xlink" x="0px" y="0px"
	 width="1870.866px" height="460px" viewBox="-12.05 109.938 1870.866 460" enable-background="new -12.05 109.938 1870.866 460"
	 xml:space="preserve">
<g>
	<path fill="#614F2F" d="M372.198,217.376l-0.77-1.323l-4.966-1.608l-2.78-2.932l-0.829-3.22l-1.36-1.034l-1.656-3.794v-2.932
		l0.828-1.149l-0.355-1.322l0.355-1.495l1.715-3.219l-0.887-2.471l0.887-0.46l1.064-2.933l-0.354-3.161l1.952-0.862v-2.127h1.064
		l0.591-2.472h0.297l0.591-0.805l-0.591-0.46h0.591l0.237-0.748v-2.587l3.606-2.586l-0.352-0.575l2.543-3.392h0.235l0.886-1.669
		l1.54-0.459v-1.092h0.589l0.297-1.379l2.779-3.162l0.473-0.287l0.356-0.574c0.867-0.842,1.321-1.343,1.361-1.495l0.589-0.403
		l1.067-1.838l4.138-3.68l1.954-2.299c0.312-0.421,0.708-0.767,1.18-1.035l1.834-1.033l0.236-0.805l3.019-1.035l-0.24-0.518
		c0.909-0.767,1.719-1.226,2.427-1.379v-0.23l0.828-1.322l2.186-0.805c1.933-1.647,3.394-2.625,4.377-2.931l3.847-1.322l1.123,0.459
		l1.301-0.459h0.414l1.54,0.459l0.352,1.437l0.771-0.345l0.356,0.345v0.69l0.828,2.242l0.472,8.507H416.5l0.235,0.23l-1.3,5.864
		l-0.356-0.688l-0.534,2.932l0.24,1.207l-1.068,1.381h-0.236l-0.116,0.918l0.472,1.668l-0.592,2.012v0.46h-1.479l-1.064,2.7v0.23
		h-0.236l-3.015,3.564l-1.125,0.459l-0.593,1.438l-1.122-0.632l0.294,1.896l-0.53,0.806h-1.065l-0.235-0.574l-2.546-1.035
		l-1.123-2.357l0.236-1.896l0.414-0.23l3.848-10.117l2.659-3.046l0.592-3.448l-0.828-6.095l-3.136-0.862l-2.422,0.23l-1.599,0.861
		h-0.235l-1.185,1.611l-4.377,2.644l-1.715-0.289l-1.301,1.668l0.237,0.231v0.229l-1.359,0.345l-0.239,1.094
		c-1.063,0.804-2.347,1.858-3.843,3.159c-0.156,0.309-0.887,1.208-2.187,2.703v0.229l-1.362,0.862v0.46l-1.421,0.574v0.806h-0.236
		l-2.779,4.022l0.356,0.46l-3.433,6.496l-1.3,0.46v0.573h0.708l-0.353,2.703l-0.828,1.553l-1.126,4.828l-1.18,1.035
		c-0.474,4.254-0.771,6.572-0.888,6.954l1.596,1.094l-0.354,3.965l0.826,3.794c1.144,1.688,1.795,3.259,1.954,4.715l1.714-0.862
		l1.773,2.011l3.077,2.589c2.049,0.459,3.785,0.746,5.206,0.86l2.662-1.437l0.829,1.091l5.202-1.319l1.479,0.688l0.24-0.459
		l7.748-2.241h1.064l4.138-2.702l3.726-1.034l2.782-1.094l3.666-2.471h0.828l1.362-1.033l5.441-5.289l1.715-1.092l-0.89-2.932
		l-3.487-1.668l0.236-1.266l12.597-5.403l0.356-0.516c1.38-0.384,2.187-0.729,2.422-1.036h0.828l0.89,2.128h0.708l-0.708,3.162
		h-0.89l-1.064,2.127v-0.462l-0.592,0.462l-0.65,2.011l-2.659,2.588l-0.24-0.575c-1.26,1.802-2.03,2.778-2.307,2.931v0.806
		l-2.659,1.667c-0.276,0.345-0.553,0.614-0.829,0.805h-1.3l-0.414,0.69c-0.791,0.307-1.42,1.056-1.892,2.241l-3.789,1.781
		l-0.353,0.346l-0.235-0.346c-0.752,0.346-1.402,0.902-1.954,1.669h-0.472l-0.828,1.036l-0.651-0.232l-0.236,1.094l-2.19,0.229
		l-1.123,1.093c-0.356,0.343-1.341,0.881-2.957,1.609v0.229l-0.887-0.229c-0.512,0.077-1.144,0.421-1.893,1.033l-0.235,1.322
		l-1.125-0.229l-1.065,0.573v0.231h-2.187c-1.064,1.073-2.139,1.82-3.225,2.241c-1.083,0.423-3.164,0.92-6.241,1.495v0.747
		l-2.659-0.229v1.034l-1.479-0.23l-0.475,0.23v0.345h-1.657l-0.294,1.093l-3.251,0.346L372.198,217.376z"/>
	<path fill="#614F2F" d="M501.671,130.517l2.781,0.346l1.361,2.126l-0.236,2.586c0.117,0.5,0.224,0.93,0.325,1.293
		c0.099,0.365,0.265,1.544,0.503,3.537l0.473,1.378v2.127l1.36,1.322v0.805l1.953,14.946h0.59l0.828,1.035h-1.892
		c0.748,2.108,1.38,4.274,1.892,6.495l1.953,0.689l1.833-1.494l1.953,0.805h0.828l0.236,0.23l0.356-0.23
		c0.156,0.154,0.964,0.307,2.425,0.459l3.017-2.126l4.732,0.288l0.235-0.862l3.018,0.862l5.263-1.321l1.064-1.035
		c0.394-0.422,0.907-0.728,1.539-0.919l2.366-0.748l1.065,1.668h1.952l0.827,2.357c-0.749,1.495-1.478,2.586-2.187,3.275
		l-0.591-0.345l-4.732,4.828l-2.427,1.608h-5.796l-3.252,0.863l-2.839-0.632l-5.677,2.357l-0.356-0.23l-3.488,1.436l0.828,12.476
		h0.235v0.574l-0.828,0.861l0.828,0.689l0.236,2.703l0.592,0.574l-0.592,1.094l1.125,1.493l0.592,4.598l0.828,1.095l0.829-0.288
		l0.294,0.748l-0.118,0.805h-0.769l0.236,6.725c-0.71,1.151-1.44,2.128-2.189,2.933l-2.128,0.231l-0.651,1.666l-1.539-0.229
		l0.237,1.495l-0.947,1.15c-0.276,0.345-1.34,1.07-3.193,2.182l-2.07-1.666c-0.236-0.153-0.512-0.575-0.828-1.266l-0.71-1.667
		v-3.221l-1.123-5.058l-0.474-0.804l0.474-3.275l-0.474-2.817l1.125-2.242l-1.361-4.713c0.354-0.729,0.591-1.706,0.71-2.934
		l-0.474-0.861l0.474-2.471c0-0.69-0.237-2.107-0.71-4.254l1.064-2.3l-0.354-3.794l-1.774-1.035l-1.242,0.459v-0.459l-2.664,0.231
		l0.239,1.608l-1.302-0.346l-1.479,0.346l-0.354,0.231c-1.814,0.88-3.589,1.322-5.323,1.322l-1.717-0.231l-3.489,1.035l-3.667,0.633
		l-0.236,1.494l-2.545-1.035v1.035h-0.472l-1.714,1.666h-2.427l0.888,2.357l-2.307-0.46l-3.549,2.069l-0.828,0.862l-1.952-0.575
		l-2.189,1.611h-2.128v1.551l-2.189,0.346l-0.886,1.897l-1.063,1.033l-1.48,3.68l0.414,0.346c-0.118,0.345-0.769,1.053-1.951,2.126
		l-0.238,3.16l-1.715,1.266l0.236,0.633h-0.828v1.265l-1.951,1.435v0.46c-0.276,0.269-0.73,0.979-1.361,2.127h-0.474l-1.418,4.026
		l-0.533-0.749v0.461l-1.42,1.092l-0.354,1.091c-0.08,0.384-0.494,0.921-1.242,1.611l-2.188-0.806
		c-0.236-0.652-0.434-1.017-0.592-1.093l0.236-0.804v-0.46l0.356-1.093c-0.434-0.727-0.71-2.185-0.828-4.368l0.828,0.402
		l-0.592-0.631v-0.809l0.236-0.228l-0.473-1.438l0.473-1.035l-0.59-1.321l0.354-0.461c-0.078-0.842-0.156-2.012-0.236-3.506
		l1.125-0.861l3.253,2.47h1.95l6.862-8.336l-1.064-0.688l0.236-1.207l-2.188,0.862l-0.354,0.575l-0.475-0.229l-1.36,0.688
		c-0.394,0.23-1.242,0.424-2.543,0.576l-1.953-2.473c0.947-2.337,1.794-3.658,2.544-3.966c0-0.422,0.65-1.284,1.951-2.587
		l1.36-0.402l-0.236-0.229l2.188-2.931h0.236l5.206-1.035l0.592,1.035l1.064-0.231l0.236,0.231h0.65l0.475-1.035l1.714,0.23v-0.461
		l1.302-1.092l-0.828-1.381l1.064-1.551l2.779-1.035l-0.236-0.633l0.354-0.863c0.08-0.266,0.69-0.88,1.835-1.837
		c0.749-2.913,1.556-4.599,2.425-5.061h-0.473l2.779-3.391l0.235,0.231l4.142-6.381h-0.237l1.537-2.243h0.355l3.312-5.863h0.474
		l2.781-4.483l0.826-0.23l1.361-2.471c0.157-0.153,0.511-1.016,1.065-2.587l1.951-1.437v-0.23l1.064-2.701l0.652-0.231l0.237-2.127
		h0.828l0.237-0.804h0.235l0.652-1.323l4.671-2.702L501.671,130.517z M492.387,147.704l-1.953,0.46v0.806l-1.952,1.897h-0.59
		l-2.662,3.736h-0.237l-1.953,3.679v0.573l-0.708,1.035c-0.237,0.422-0.572,0.748-1.006,0.979l-1.656,0.919l-0.769,1.897
		c-0.236,0.537-0.434,1.879-0.591,4.023l-1.064-0.229l-0.237,1.492l-2.188,1.668l0.235,0.231v1.321l-1.952,0.806l-1.536,4.195
		c-0.276,0.804-0.573,1.438-0.888,1.898l-1.418,1.896l0.235,0.346v0.23l0.592,0.287h3.489l1.478,0.805l4.614-2.703l3.846-0.229
		l0.235,0.805l0.355-1.437h2.187l3.906-1.035l1.064,0.345l2.425-0.805v-0.23l3.667-1.206v-0.231l4.555-1.034v-1.322l-1.539-1.379
		v-4.484l1.3-2.931l-1.3-0.863l-1.714,0.863l-2.188-2.99l3.075-0.229v-0.804l-3.667-0.805l0.354-0.863l-1.064-1.264l0.71-1.094
		l-1.952-2.932l0.355-0.574l0.533-0.23l-0.888-0.862l-0.709-3.967L492.387,147.704z"/>
	<path fill="#614F2F" d="M586.017,136.956c2.13-0.307,5.875,0.401,11.239,2.127l1.063,0.863c0.355,0.307,0.927,0.573,1.715,0.804
		l-0.355,0.691l4.732,3.504l1.596,2.358l-2.957,3.563l-5.324,3.391l-0.711,2.128l-0.354-0.46l-1.952-0.229l-1.065,0.229
		l-1.004-1.322c-0.396-0.536-0.85-0.957-1.359-1.265l-2.013-1.209l-1.123-2.354h-0.592l-0.475-0.805l-1.358-0.345
		c-0.554-0.153-0.968-0.365-1.241-0.634l-1.243-1.148l-1.718,0.86l-0.709,1.495l-2.838,3.563v2.59l-1.893,2.93l-1.95,9.888
		l0.118,1.438l-2.662,13.508c-0.394,1.916-0.67,3.527-0.829,4.83l-0.532,0.346l0.239,0.688l-0.947,1.094l0.236,1.665l-0.236,1.381
		l-0.592,0.69c-0.158,0.152-0.395,0.977-0.71,2.471l-0.651,2.99l-1.064,2.127c-0.316,0.688-0.688,1.934-1.124,3.736l-2.247,2.126
		l0.472,1.495l-1.714,0.633l0.472,1.897l6.33,0.459h1.951l1.892,1.381l8.754,0.459l-0.886-0.228l1.714-0.231l4.14,0.231l1.894-0.231
		l1.36,0.746l3.608,0.576l1.359-0.863l2.542,0.287h1.599l1.063-0.515l3.018,0.515l-0.474-1.551c1.065-1.61,1.873-2.586,2.424-2.933
		l5.798-3.794l0.887-0.231l4.555-2.127l1.714,0.23c1.421,1.343,2.958,2.415,4.614,3.22l-0.828,1.841
		c-0.354,0.728-0.729,1.304-1.125,1.726l-1.833,1.837l-2.542,0.689c-0.436,0.538-1.225,1.725-2.367,3.564l-2.188,0.459l-0.651,0.805
		h-0.827l-2.425,1.666l-1.952-0.228l-1.065,0.689l-2.779-0.462l-3.016,1.899l-3.904-0.287l-0.474,0.747l-1.125-0.747l-2.129,0.517
		l-0.414,1.035l-3.017-1.035h-0.71l-1.953,1.035h-3.014l-2.781,0.229h-3.016l-4.731,0.574l-1.125-0.804l-1.536,0.804l-2.782-0.574
		l-9.937-0.229l-3.017-0.46l-0.294-0.805l-1.066,1.035l-0.828-0.23l-1.123,1.495h-1.953l-0.235-3.164l-0.829-0.228l-1.065,0.459
		l-2.424-1.035l-3.432,0.576l-2.424-0.808l-0.238-0.859h-1.655l-1.716-1.036l-0.711-3.794l2.427-0.229l1.301-3.163l1.361-0.402
		c0.394-0.114,1.516-0.805,3.37-2.068v-0.46l3.61-0.345l1.832,1.379c1.381,0.154,2.602,0.309,3.668,0.461l1.064,0.633h0.592
		l0.474,0.229h1.951l1.125,0.23l1.656-1.782c0.119-0.957,0.415-2.413,0.887-4.367l0.475-0.462l1.064-4.368l0.236-5.059l0.888-0.23
		l2.188-8.793l-0.297-5.69l1.716-2.357l-1.064-1.265l1.064-0.345l0.828-2.127l-0.593-0.46l1.124-6.266
		c-0.197-0.536-0.494-0.957-0.886-1.265v-1.323l0.651-0.344l0.235-5.519l1.066-1.897l-0.237-2.702l0.828-0.461l1.125-4.368
		l0.828-0.23l0.708-2.127l3.905-2.932l3.015-1.896h0.591l0.532-0.804l2.131-0.231l1.951-1.896l1.126-0.231l-0.533-0.632
		L586.017,136.956z"/>
	<path fill="#614F2F" d="M672.843,136.956c2.131-0.307,5.876,0.401,11.238,2.127l1.065,0.863c0.354,0.307,0.925,0.573,1.716,0.804
		l-0.354,0.691l4.732,3.504l1.596,2.358l-2.957,3.563l-5.324,3.391l-0.711,2.128l-0.354-0.46l-1.953-0.229l-1.064,0.229
		l-1.004-1.322c-0.396-0.536-0.851-0.957-1.361-1.265l-2.01-1.209l-1.125-2.354h-0.592l-0.474-0.805l-1.36-0.345
		c-0.552-0.153-0.966-0.365-1.239-0.634l-1.244-1.148l-1.716,0.86l-0.711,1.495l-2.838,3.563v2.59l-1.892,2.93l-1.951,9.888
		l0.118,1.438l-2.663,13.508c-0.396,1.916-0.67,3.527-0.828,4.83l-0.532,0.346l0.239,0.688l-0.946,1.094l0.237,1.665l-0.237,1.381
		l-0.591,0.69c-0.159,0.152-0.395,0.977-0.712,2.471l-0.65,2.99l-1.064,2.127c-0.317,0.688-0.69,1.934-1.125,3.736l-2.246,2.126
		l0.472,1.495l-1.715,0.633l0.473,1.897l6.331,0.459h1.95l1.894,1.381l8.754,0.459l-0.887-0.228l1.714-0.231l4.14,0.231l1.895-0.231
		l1.36,0.746l3.607,0.576l1.36-0.863l2.542,0.287h1.598l1.065-0.515l3.017,0.515l-0.476-1.551c1.065-1.61,1.874-2.586,2.425-2.933
		l5.798-3.794l0.887-0.231l4.555-2.127l1.715,0.23c1.42,1.343,2.958,2.415,4.613,3.22l-0.827,1.841
		c-0.354,0.728-0.731,1.304-1.125,1.726l-1.833,1.837l-2.543,0.689c-0.436,0.538-1.224,1.725-2.367,3.564l-2.188,0.459l-0.651,0.805
		h-0.828l-2.424,1.666l-1.952-0.228l-1.064,0.689l-2.781-0.462l-3.015,1.899l-3.905-0.287l-0.471,0.747l-1.125-0.747l-2.129,0.517
		l-0.415,1.035l-3.017-1.035h-0.71l-1.953,1.035h-3.015l-2.78,0.229h-3.016l-4.732,0.574l-1.124-0.804l-1.536,0.804l-2.781-0.574
		l-9.938-0.229l-3.016-0.46l-0.294-0.805l-1.067,1.035l-0.829-0.23l-1.123,1.495h-1.952l-0.237-3.164l-0.828-0.228l-1.064,0.459
		l-2.425-1.035l-3.43,0.576l-2.425-0.808l-0.238-0.859h-1.655l-1.718-1.036l-0.709-3.794l2.426-0.229l1.3-3.163l1.36-0.402
		c0.395-0.114,1.515-0.805,3.372-2.068v-0.46l3.609-0.345l1.831,1.379c1.381,0.154,2.603,0.309,3.667,0.461l1.064,0.633h0.592
		l0.476,0.229h1.95l1.125,0.23l1.657-1.782c0.117-0.957,0.414-2.413,0.886-4.367l0.474-0.462l1.065-4.368l0.237-5.059l0.889-0.23
		l2.189-8.793l-0.297-5.69l1.715-2.357l-1.065-1.265l1.065-0.345l0.828-2.127l-0.592-0.46l1.125-6.266
		c-0.199-0.536-0.495-0.957-0.887-1.265v-1.323l0.65-0.344l0.237-5.519l1.064-1.897l-0.236-2.702l0.828-0.461l1.125-4.368
		l0.827-0.23l0.709-2.127l3.904-2.932l3.016-1.896h0.59l0.532-0.804l2.131-0.231l1.952-1.896l1.124-0.231l-0.531-0.632
		L672.843,136.956z"/>
	<path fill="#614F2F" d="M777.181,139.542l1.479,0.345c0.316,0.346,0.917,1.035,1.805,2.069c0.885,1.035,1.368,2.55,1.447,4.542
		l1.953,2.472l-0.237,1.552l2.425,3.276l-0.237,1.322l0.829,1.608l-0.592,2.127l1.715,1.553l0.709,2.701h2.544l2.485,1.15
		c0.356,0.154,0.71,0.383,1.064,0.689l1.421,1.322l-0.593,3.564l0.828,0.805l-0.235,2.126l0.472,1.609l-1.302,2.126l0.475,1.898
		l-1.773,1.955c-0.277,0.269-0.494,0.766-0.654,1.495l2.189,2.068l-2.189,1.093l-1.714,2.701l-2.07,0.518
		c-0.788,0.191-1.458,0.46-2.011,0.805l-2.187,1.381l0.591,0.804c-1.499,2.224-2.229,3.449-2.188,3.678l-1.064,0.576l-0.889,2.701
		l-0.591,0.23l-1.065,1.896c-1.023,0.804-2.129,1.937-3.312,3.392l0.236,0.287l-1.656,2.185l-1.125-0.345l0.653,0.86l-4.377,4.313
		l-6.092,5.059h-1.067l-1.478,1.553c-0.789,0.268-1.677,0.747-2.661,1.437l-1.421-0.863l-0.472,0.23l-2.308-0.69
		c-0.748-0.229-1.637-0.688-2.661-1.381c-0.867-0.842-1.519-1.281-1.953-1.321l-0.828-1.783l-1.124,0.117l-0.237-1.035l-1.479-0.576
		l0.414-0.747l1.064-0.575l-0.592-0.574l0.355-0.689l-0.828-1.667l-0.653-0.92c-0.157-0.267-0.433-1.379-0.827-3.335h-0.708
		l0.235-1.609l-0.235-1.667l0.471-1.091l-0.471-0.231l0.708-4.196l-0.708-2.701l0.708-0.517l-0.237-0.805l0.237-2.703l-0.473-1.667
		l1.065-1.724v-2.759l1.359-5.404h-0.237l0.592-1.266l-0.355-0.518l0.592-0.343l-0.237-1.035l2.309-5.519l0.116,0.229v-1.088
		l0.237-1.609l0.593-0.23v-1.092l0.235-0.574l1.126-0.23l-0.476-0.23l0.711-0.633l-0.235-2.068l0.827-0.634l0.827-2.127h0.239
		l0.414-1.265c0.155-0.383,0.59-0.939,1.301-1.667v-1.034l1.125-0.23v-0.574l3.252-3.449l0.473-1.266l1.479-0.633l0.236-1.264
		c1.26-1.073,1.991-1.629,2.189-1.668c0.392-0.996,1.319-1.782,2.778-2.357l4.081-1.61h3.077L777.181,139.542z M768.959,149.775
		l-2.426,1.551l-1.893,2.932l-1.538,1.438c-0.434,0.46-1.144,1.513-2.13,3.159l-1.065,2.703l-1.064,2.012
		c-0.354,0.613-0.65,1.629-0.887,3.047l-0.71,0.863v2.355l-1.479,1.264l-0.474,1.898v1.035l-1.479,1.437v0.46l-2.188,5.058
		l0.414,1.899l-1.242,2.7l0.592,0.46l-0.592,1.898l0.592,0.804l-0.828,2.472l-0.828,4.254l1.064,0.459l-1.833,1.092l0.77,1.609
		h0.591l-0.237,2.127v2.933c0.788,0.575,1.302,1.131,1.538,1.666l-0.236,0.806c0.631,1.303,1.083,2.453,1.36,3.448l1.004,0.576
		c0.274,0.152,0.945,0.863,2.012,2.127l2.543-0.576l0.83,1.382l2.187-1.036l0.236-0.573l1.359-0.231l0.593-1.896h0.236l0.592-1.095
		h1.951c1.183-1.34,1.913-2.392,2.188-3.159l1.064-0.345l0.533-1.554l1.892-3.505l1.716-0.863l0.237-1.265l2.543-1.035l-1.182-1.091
		v-1.267c0.591-0.957,0.986-1.876,1.182-2.759l-2.367-0.689c-0.273-0.076-0.846-0.537-1.716-1.379l-2.542,0.459l1.302-1.321
		l2.306-1.035l1.065-0.861c0.867-0.459,1.451-0.93,1.745-1.409c0.296-0.479,0.523-1.063,0.681-1.752l0.888-0.574l-0.888-1.035
		v-1.668l-0.236-1.781l0.236-0.576l-1.065-1.322l0.237-0.805l1.064-0.574l0.415-0.748h-0.651l-0.474-2.701l0.238-1.379l-1.42-0.461
		l-0.237-1.896l0.595-0.459c-0.158-1.188-0.652-2.646-1.482-4.37h0.653l-1.36-1.552l0.236-0.805
		c-0.985-1.764-1.558-3.104-1.716-4.024l-0.826-0.804v-2.127l-0.475-1.035l-0.591-0.344L768.959,149.775z"/>
	<path fill="#614F2F" d="M789.839,271.756l2.66-4.369l0.474,0.401l0.355-1.668l2.188-3.564l1.064-0.458l0.239-1.036l1.479-1.436
		c0.589-1.378,0.946-2.089,1.064-2.127v-0.459c0.198-0.155,0.73-1.132,1.597-2.932c0.474-1.305,0.848-2.013,1.125-2.128
		c0.434-2.223,1.065-4.1,1.893-5.634l0.888-3.162v-0.861l0.827-1.267l1.716-8.161v-1.033c0.354-0.347,0.593-0.942,0.711-1.784
		l1.064-7.299l1.479-1.897l-0.353-1.494l0.353-1.093l0.828-4.828l0.473-1.035l-0.237-1.668l0.237-0.46l1.125-4.599l0.236-1.896
		l0.592-1.609l-0.236-2.127l0.236-0.462l1.36,0.231l1.064-3.794v-1.494l0.592-3.564l0.887-0.23v-1.896l0.474-0.804v-2.703
		l1.715-4.482l0.236-1.035l-0.474-1.092l1.302-2.472v-1.035l0.354-1.205c-1.261-0.844-2.108-1.267-2.544-1.267H817.7l-0.767,0.459
		l-1.656-0.688h-0.888l-0.829-1.897l-2.425-0.46l-0.827-0.862h-0.888l-1.064-1.838v-1.439l-2.189-2.814l1.242-1.668h1.539
		c0.078-0.115,0.451-0.345,1.122-0.689l0.238-0.805h0.591c0.316-0.535,1.006-1.092,2.07-1.667h1.183
		c1.184,0.69,2.208,2.223,3.076,4.599h2.778l0.475,1.035l0.591-0.576l0.829,0.805l1.123,0.231h1.3l1.361-3.967l0.121-1.552
		l0.236,0.229l-0.236-1.035l0.708-0.805l-0.237-1.322l0.593-0.573c0.393-1.035,0.769-1.819,1.123-2.357l-0.59-0.345l1.066-2.355
		l0.353,0.229l0.239-0.746h0.236v-1.15l0.886-0.69l0.474-2.472l-0.474-1.091l1.302-2.932l0.887-0.46v-0.807l2.367-2.761
		c0.434-0.305,1.203-1.091,2.307-2.355h0.532v-0.345c0.592-0.459,1.597-0.881,3.017-1.264l0.828-1.898l1.714-0.459l0.236-1.436
		l2.189,0.345l0.238-0.804l7.156-3.508l1.656,0.804c2.444-0.498,3.821-0.69,4.139-0.573l4.495,1.723l0.71,4.713l0.828,3.22
		l-5.087,4.081l-2.661-1.495l-1.892,0.229l-3.194-0.688v-2.357l-1.656,0.46l-1.952-0.46l-0.592-1.322l-0.887,0.46l-0.238,0.575
		l-0.826-0.804l-0.238,2.127l-1.361,1.033c-0.59,1.802-1.321,3.143-2.188,4.025v0.573l-1.417,1.323l-0.237,1.897L839,146.154v0.805
		h-0.592c-0.158,0.729-0.354,1.437-0.593,2.127l-0.768-0.346l-0.593,1.15v0.746h-0.235l0.235,0.805
		c-1.3,1.88-2.107,3.853-2.423,5.922l-0.591,0.23l-0.473,1.035v1.437l-0.591-0.229l-0.297,1.494l-1.183,2.186
		c-0.472,0.804-0.709,1.494-0.709,2.068l0.474,1.381l1.006,0.633c0.354,0.228,0.768,0.344,1.241,0.344l1.717,0.115l1.359,1.381
		h0.711l0.473-0.231l0.649,0.231l1.065-0.231l0.592,0.747l1.125-0.344h0.945v-0.862l0.887-0.46l0.476,0.346l1.064-0.346l0.591,1.322
		l0.65-1.207l1.183,1.437l0.71-0.863l1.242,0.23v-0.46l1.953,0.229c0.273-0.153,0.669-0.305,1.183-0.46l0.829,0.346h1.595
		l1.36,2.586l-0.419,1.439l-1.182,0.573c-0.672,0.192-1.323,0.423-1.953,0.69l-0.593,0.862l-1.595-0.23l-0.947,0.69l-1.064-0.805
		l-0.414,1.264h-1.3l-0.828-0.459h-1.243l-0.828-0.345l-1.36,0.804l-0.945-0.23l-0.889,0.805l-1.064-0.688l-0.591,1.034h-1.125
		l-0.236-0.574l-1.183,0.574l-2.19-0.574l-2.896,0.863l-1.124-1.094l-1.656,2.127l-1.125,0.23l-0.237,2.701l-0.235-0.229v1.321
		l-1.304,2.472l0.474,0.688l-0.474,1.668v2.931l-0.651-0.229v1.494l-0.589,2.473c-0.909,1.877-1.361,3.295-1.361,4.253l0.295,1.667
		c-0.829,1.38-1.28,2.243-1.359,2.588l0.592,1.15l-0.829,0.746v1.035l0.829,0.804l-0.354,1.093l0.354,0.804l-1.658,1.899
		l0.475,1.263l-0.711,1.437l-0.413,4.485l-0.475,0.805l0.237,0.804l-1.064,1.322l0.236,2.128v0.805l-0.829,0.862l-1.595,6.898
		c-0.868,1.685-1.322,2.586-1.36,2.701l0.294,0.863v0.69c-0.748,1.609-1.122,2.797-1.122,3.563v1.265l-0.592,0.575l0.236,1.551
		l-0.472,0.346l0.236,1.091l-0.236,0.231v-0.632l-0.592,1.896c-0.354,1.648-0.69,2.923-1.004,3.824
		c-0.315,0.899-1.006,1.869-2.071,2.901l-0.236,1.035h-0.474l-0.354,0.863l0.354,0.229l-0.828,0.576l0.236,0.46l-1.36,2.472
		l-0.236,0.919c-0.081,0.269-0.731,1.111-1.953,2.528v1.036l-0.354-0.462c-0.946,1.15-1.676,1.782-2.188,1.898v2.069l-2.129,3.794
		l-0.889-0.346c-0.393,0.995-1.123,2.316-2.188,3.968l-1.182,1.321c-0.273,0.268-0.768,1.168-1.479,2.701l-2.188,0.921v0.632
		l-0.472,0.69l-0.593-0.462l-1.713,2.934l-1.421-0.806l-1.596,1.61v-0.346l-0.592,0.861h-0.473l-0.355,0.577l-0.532,0.229
		l-0.354,0.805l-0.474-0.23l-0.828,1.091h-1.123l-0.593,1.036h-1.302l-1.122-0.115l-0.77-0.632
		c-0.197-0.193-0.513-0.845-0.947-1.955l1.243-1.898l1.834-0.804l0.828-1.323l2.188-0.23l0.59-1.378l1.716-0.287l1.241-1.266
		c0.355-0.384,1.479-1.091,3.373-2.127L789.839,271.756z"/>
	<path fill="#614F2F" d="M893.524,217.376l-0.77-1.323l-4.967-1.608l-2.78-2.932l-0.826-3.22l-1.359-1.034l-1.657-3.794v-2.932
		l0.829-1.149l-0.356-1.322l0.356-1.495l1.714-3.219l-0.886-2.471l0.886-0.46l1.064-2.933l-0.354-3.161l1.951-0.862v-2.127h1.065
		l0.592-2.472h0.295l0.593-0.805l-0.593-0.46h0.593l0.237-0.748v-2.587l3.607-2.586l-0.354-0.575l2.543-3.392h0.238l0.887-1.669
		l1.539-0.459v-1.092h0.589l0.297-1.379l2.78-3.162l0.474-0.287l0.355-0.574c0.866-0.842,1.321-1.343,1.359-1.495l0.59-0.403
		l1.066-1.838l4.14-3.68l1.953-2.299c0.313-0.421,0.71-0.767,1.18-1.035l1.834-1.033l0.236-0.805l3.018-1.035l-0.239-0.518
		c0.908-0.767,1.718-1.226,2.428-1.379v-0.23l0.825-1.322l2.188-0.805c1.932-1.647,3.393-2.625,4.378-2.931l3.845-1.322l1.125,0.459
		l1.301-0.459h0.414l1.539,0.459l0.354,1.437l0.769-0.345l0.356,0.345v0.69l0.826,2.242l0.473,8.507h-0.234l0.234,0.23l-1.299,5.864
		l-0.356-0.688l-0.531,2.932l0.239,1.207l-1.068,1.38h-0.236l-0.116,0.918l0.474,1.668l-0.593,2.013v0.459h-1.478l-1.065,2.701v0.23
		h-0.236l-3.016,3.563l-1.124,0.459l-0.594,1.438l-1.125-0.632l0.298,1.896l-0.533,0.806h-1.064l-0.235-0.574l-2.546-1.034
		l-1.123-2.358l0.237-1.896l0.414-0.231l3.843-10.116l2.663-3.047l0.592-3.448l-0.828-6.095l-3.136-0.862l-2.424,0.23l-1.599,0.862
		h-0.235l-1.183,1.609l-4.376,2.645l-1.716-0.289l-1.303,1.668l0.239,0.231v0.229l-1.359,0.345l-0.24,1.094
		c-1.063,0.805-2.346,1.858-3.842,3.16c-0.158,0.308-0.889,1.207-2.189,2.702v0.229l-1.359,0.862v0.46l-1.42,0.574v0.806h-0.237
		l-2.78,4.022l0.356,0.46l-3.431,6.497l-1.302,0.459v0.574h0.709l-0.354,2.702l-0.828,1.554l-1.124,4.827l-1.184,1.035
		c-0.474,4.254-0.767,6.573-0.887,6.954l1.598,1.094l-0.356,3.965l0.829,3.795c1.144,1.688,1.794,3.258,1.952,4.715l1.716-0.863
		l1.772,2.011l3.079,2.588c2.048,0.46,3.785,0.747,5.204,0.861l2.662-1.436l0.83,1.091l5.203-1.319l1.478,0.688l0.238-0.459
		l7.748-2.241h1.064l4.139-2.703l3.728-1.033l2.781-1.094l3.666-2.472h0.828l1.359-1.032l5.443-5.291l1.714-1.09l-0.889-2.933
		l-3.488-1.667l0.236-1.267l12.601-5.403l0.353-0.516c1.381-0.383,2.19-0.729,2.426-1.035h0.829l0.886,2.127h0.708l-0.708,3.162
		h-0.886l-1.064,2.127v-0.461l-0.593,0.461l-0.652,2.011l-2.661,2.589l-0.235-0.576c-1.266,1.802-2.031,2.779-2.31,2.932v0.805
		l-2.661,1.668c-0.275,0.344-0.551,0.613-0.828,0.804h-1.3l-0.414,0.69c-0.789,0.308-1.42,1.056-1.894,2.241l-3.787,1.782
		l-0.354,0.346l-0.236-0.346c-0.75,0.346-1.4,0.9-1.952,1.668h-0.476l-0.827,1.035l-0.649-0.231l-0.238,1.094l-2.188,0.229
		l-1.124,1.094c-0.356,0.344-1.342,0.882-2.958,1.609v0.229l-0.887-0.229c-0.512,0.077-1.146,0.422-1.893,1.034l-0.236,1.322
		l-1.125-0.229l-1.065,0.573v0.231H924.4c-1.064,1.072-2.139,1.819-3.224,2.241c-1.084,0.423-3.165,0.919-6.241,1.494v0.747
		l-2.661-0.229v1.035l-1.478-0.231l-0.476,0.231v0.344h-1.656l-0.293,1.094l-3.253,0.345L893.524,217.376z"/>
	<path fill="#614F2F" d="M1043.343,137.702l4.142-2.356l2.422-0.403l-0.235,3.564l-2.307,2.934l-3.901,1.896l-0.712,1.495
		l-3.842,1.667l-0.651,1.092l-3.135,1.15l-4.257,0.459l-1.897,0.461l-1.357-1.034l-1.657,0.573l0.59-1.896l-2.779-0.345l-0.89,0.345
		l-1.535-0.576l-1.716,0.576l-1.065-0.576l-1.715,0.576c-0.355,1.033-0.929,2.262-1.72,3.678l-1.063,1.898l-0.473,3.507l-3.67,7.761
		l-0.234,0.862l-1.243,1.666c-0.474,0.614-0.709,1.534-0.709,2.761v2.758l-0.829,2.068l-1.358,2.129l-1.069,4.023l0.829,1.666
		l-0.829,3.738l-0.588,1.092l0.353,1.264l-0.829,0.805l0.477,0.518l-0.477,2.703l0.24,0.805l-0.89,2.471l-0.116,2.472l-1.302,3.678
		l-0.77,4.427l-3.608,7.529v0.863l0.83,1.265l-1.657,1.436c-0.16,0.155-0.893,0.384-2.19,0.69v0.23l-3.251,2.472l-1.718-0.231
		l-0.475-1.378l-2.543,0.343l-1.95-1.205l1.421-3.392l0.765-0.229l2.78-4.369c0.314-1.38,0.965-2.357,1.952-2.933l0.236-2.932
		l0.71-3.793l1.478-3.393l1.54-4.253l-0.947-3.277l0.592-2.989l1.123-3.391c0.239-2.107,0.563-3.61,0.976-4.512
		c0.415-0.901,0.84-1.563,1.271-1.983l-1.183-1.264l0.828-1.323l-0.472-1.035c0.552-1.609,1.202-2.798,1.952-3.563v-1.265
		l1.301-0.573l-0.236-1.899l-0.592,0.576l0.828-1.896l-0.592-1.035l1.242-3.794l-1.242-1.035v-0.46l1.242-0.862v-1.379l-0.887-0.689
		l0.887-1.438l1.774-5.52l-1.774,0.23l-8.874,1.896l-3.016-0.402l-1.063,1.092l-2.601,0.576l0.414,2.127l-3.668,2.473l-1.951,1.896
		l-0.828-0.345l-1.065,0.921c-0.356,0.306-0.729,0.977-1.126,2.01l-3.014,0.805l-0.473,1.093l-0.829-0.23l-1.125-1.896l-3.251-2.702
		l-1.478-4.023l0.351-1.034h1.599c0.512-0.768,1.812-1.917,3.904-3.45l0.829-2.24l3.015-0.69v-0.804l1.951-0.231l0.477-1.206
		l4.139-0.23l1.655-0.229l1.363,0.459l0.59-1.035l3.015,0.345l1.123-0.345h1.895l-0.353-0.23l1.715-0.861l1.95,0.346h2.781
		l1.064-1.15l1.124,0.346l3.844-0.346l0.235-0.69h1.127l1.063,0.69h1.358l0.355,0.346l3.02-0.576l3.485-1.092l0.888,0.861
		l2.781-0.229l2.187,0.46l3.49,1.035l-0.235-0.459l2.186-1.899l4.141,0.459c2.522-0.688,4.378-1.033,5.559-1.033l2.426,0.345
		L1043.343,137.702z"/>
	<path fill="#614F2F" d="M1114.027,138.278c1.735,0.614,2.977,0.958,3.727,1.035l1.122,3.162l-1.357,2.471l-4.143,9.313v1.094
		l-1.655,0.573l-0.236,0.804h-0.887c0.432,0.576,0.727,1.65,0.887,3.221l-0.887,0.229l-0.236,3.508l-1.307,1.551l-0.349,2.244
		l-0.771,0.229l0.236,1.898l-0.591,1.264v2.127l-0.474,0.574v1.897l-0.827,1.896l6.625,1.035l0.472,0.459l2.958-0.345
		c0.634-0.077,1.143-0.229,1.538-0.46l1.597-1.035l2.427,0.345l2.779-1.437c2.089-0.536,3.706-1.092,4.849-1.667l2.663,0.518v4.195
		l-1.954,2.876v1.034l-1.715-0.23l-1.301,0.459l-1.714-0.229l-1.656,0.804l-0.771-0.575l-1.181,1.436l-4.141,0.805l-2.427,1.267
		h-2.779l-3.254,0.86l-0.237-0.574l-1.951,0.574l-1.357,2.127v8.221l-0.593,0.804l0.885,1.898l-0.292,2.355l0.53,1.898v1.896
		l1.301,0.805h2.781l2.188,0.575l0.354,2.128l-1.953,1.552l-0.353,1.61l-2.189,2.987l-0.474,1.84l-1.655,1.323l-0.53,1.667
		l-4.44,2.586c-0.553,0.881-1.025,1.484-1.416,1.811c-0.396,0.325-0.828,0.661-1.305,1.007L1098,227.03l-3.848,1.265l0.236-2.069
		l1.421-0.863l0.533-1.608l0.588-0.518l0.477-1.264l-1.598-1.437l1.361-6.093l-0.24-0.863l0.477-1.84l-0.477-1.092l1.305-3.736
		l-0.828-3.68l0.353-1.034l0.24-7.991l0.235-2.242l-0.235-0.518v-1.033l-1.305-2.127v-1.381l-2.544-0.286v1.667l-3.55-0.576h-1.064
		l-3.37,1.265v0.862l-3.313,0.576l-1.656-0.576l-0.236,0.576l-1.121-0.346l-3.848,0.689l-6.093,2.243l-0.709,1.206v8.68
		l-0.827,1.667l4.318,1.609v2.358l0.236,1.09l-1.064,0.805l-0.477,2.358l0.24,2.472l0.588,0.459
		c-0.392,1.035-0.868,1.782-1.416,2.242h-1.599v0.749l-0.77,0.572c-0.236,0.153-0.749,0.94-1.536,2.358h-0.473l-1.362,1.38
		l-3.014-0.575h-1.716l-1.304-1.035l0.298-1.15c0.115-0.343,0.551-0.861,1.3-1.551l0.236-2.646l-0.53-1.838l0.53-3.564l-0.236-2.125
		l0.828-2.934l-0.236-2.703l0.236-0.229v-1.553l0.828-1.839v-1.093l-0.828-1.379l0.828-2.99l-1.42-1.264l-1.834-0.231l-0.829,1.036
		l-0.886-0.576c-0.473,0.424-1.282,0.69-2.423,0.805l-1.186,1.094l-7.156,1.264h-0.71l-0.886,1.092l-2.187-1.092l-1.893,0.863
		l-0.654-1.094l0.654-1.494l-0.654-0.633l0.891-3.736l1.952-0.862l0.471-0.688l3.848-0.807l1.95,0.461l0.592,0.574l2.424-1.035
		l2.189,0.23l1.715-0.23l1.657,0.461l0.532-0.804l0.826-0.231l0.476,0.231l1.123-0.518c0.196,0.345,1.122,0.632,2.779,0.86
		l0.829-1.436l-0.591-3.967c1.066-1.342,1.717-2.49,1.951-3.447l-0.77-0.231l1.125-1.667l-1.125-3.508l0.77-4.023l-0.532-4.195
		l0.89-1.094l-0.356-0.803l0.829-1.897l-0.473-3.622l-2.133,0.115c-0.588,0.078-1.209,0.287-1.862,0.632
		c-0.651,0.345-1.272,0.883-1.86,1.61l-1.069-0.287l-1.064,0.977c-0.431,0.384-0.866,0.651-1.3,0.805l-1.773,0.576l0.531,2.356
		l-1.124,2.76l-0.236-1.669c-1.064,0.844-2.07,1.745-3.019,2.702l-0.887-0.574l-2.129,0.69l-0.234,0.688l-1.956,1.094v0.805
		l-3.544-1.035l-1.421-1.551v-2.243l1.063-2.931l2.78-2.933l2.188-0.862l1.479-1.033c0.474-0.308,1.438-0.749,2.896-1.322
		l0.593-0.805l2.426-0.46l0.593-0.806h1.359l2.541-1.896h1.834l0.592-0.863h2.424l2.133-1.092c0.271-0.115,0.765-0.652,1.478-1.609
		l1.301-0.116c0.433-0.077,1.104-0.382,2.013-0.919l0.236-1.092l1.655-0.23l0.888-1.035h0.828l1.595-1.896l3.019-1.035l2.779,0.23
		c0.868,1.15,1.795,2.127,2.779,2.932v2.703l-0.589,1.092l-3.017,0.459l-0.53,2.472l-1.539,4.829l-1.243,5.059v1.609l-1.064,1.092
		l0.237,1.898l-0.828,1.032l-1.953,8.853l-1.122,1.495l-0.236,2.989l0.65,1.035l2.129-0.231l2.663,0.806l2.838-0.574l6.269-0.461
		h1.479l0.475,0.461l3.844-0.807l0.653-0.516h2.128l2.427,0.516l1.715-0.978l-0.473-3.046l1.417-1.896l-0.711-1.783l0.887-2.701
		l-0.176-2.586l0.532-1.84l-0.532-1.669l0.532-1.436c0.156-0.46,0.591-1.074,1.301-1.841l-1.183-1.551l1.42-3.162v-1.896
		l-0.592-2.703l0.592-0.863l-0.592-0.804l1.719-2.932l0.472-0.23l0.356-2.931l0.829-0.517l0.53-1.149l1.656-0.69l3.313-2.703h1.893
		L1114.027,138.278z"/>
	<path fill="#614F2F" d="M1172.64,147.704l2.13,0.23l0.887,1.035l1.951,0.46l0.477,2.99l-0.888,0.573l-0.71,1.61l-4.729,3.448
		l-0.828,1.265l-8.225,19.316l-0.887,1.092l0.357,1.263l-0.83,0.577v2.355l-1.064,2.989c-0.674,1.226-1.243,2.664-1.716,4.312
		l0.236,0.229l-0.828,1.554l-1.36,9.197l0.236,2.355l-0.588,3.507l0.942,0.461l1.599-0.232l0.588-0.574l2.427-0.804l1.716-1.781
		l2.189-1.151c1.064-0.842,1.795-1.284,2.187-1.322l1.657-1.897l1.122-0.229l1.954-2.127h0.473l3.371-3.162l1.361-1.036l0.887-1.149
		c0.275-0.343,0.904-0.784,1.895-1.322l1.951-3.792h0.71c0.708-1.342,1.438-2.203,2.186-2.588l0.593-1.438l2.187-0.459l2.19-2.701
		h0.828l1.715-4.6l1.893,0.344l1.123-1.033l-0.352-1.094l0.587-1.149l2.19-9.541l0.829,0.229l0.828-1.896l2.837-2.357l2.898-1.609
		l1.185,0.23l0.944-1.15c0.117-0.116,0.218-0.193,0.297-0.23l1.772-0.977h0.771l0.355-0.805l1.537-0.23h0.887l1.065,2.299
		l-1.659,1.439l1.186,1.32l-3.014,12.244l-1.479,2.184l-1.54,15.234l0.236,5.864l0.828,2.701l-0.828,2.357l2.191,4.254l1.656,1.035
		l1.121-1.495h1.064l1.127,1.264l1.656,0.231v2.47l-1.953,1.322l-6.389,6.728l-4.613,3.392c-0.948-0.69-1.678-1.476-2.19-2.356
		h-2.543l-3.843-8.221l1.181-1.896l-1.951-1.899l-0.828-9.426l0.235-2.357v-3.16l0.593-1.668l-0.828-1.035l0.235-1.896l-0.235-1.035
		l-9.107,10.116l-1.896,1.667l-0.238,0.806l-3.899,3.391l-1.065,0.346l-1.125,2.126l-0.828,0.23
		c-0.593,0.767-1.399,1.475-2.424,2.127l-1.952,0.575l-1.065,1.093l-4.967,4.022h-1.953l-0.828,1.841
		c-2.169,1.15-3.824,1.86-4.965,2.126l-0.891,1.093l-1.301-0.288l-2.25,1.092c-0.668,0.308-2.029,0.652-4.078,1.035l-1.064,1.092
		l-2.543,0.23l-0.712-0.804l0.237-0.749l-0.889-0.573l1.127-3.795l1.65-4.426l-0.586-1.438l1.715-5.058l-1.48-2.127l1.48-2.703
		v-2.355l0.827-1.897l0.767-0.229l0.593-2.932l1.064-1.035v-0.862l-0.829-0.229l-0.236-2.703l0.828-0.804v-0.862l1.362-1.495v-6.726
		l1.657,1.898l0.174-1.955c0.038-0.652,0.275-1.342,0.713-2.07l-0.889-1.379l1.122-0.287l0.83-2.703l-1.716-0.23l0.652-2.126
		l1.299,1.322v-3.679l-0.828-0.805l-3.251,0.46l-4.141,1.896l-1.128,0.806l-2.543-1.265l-0.352-2.701l3.194-1.898l3.015-2.127
		l6.035-2.699l0.472-0.46l4.142-1.093l1.185-1.841l0.294,0.23l1.893-1.091v-0.576l3.076-0.805l-0.649-0.23l2.187-1.32
		L1172.64,147.704z"/>
	<path fill="#614F2F" d="M1273.31,136.956c2.129-0.307,5.875,0.401,11.24,2.127l1.063,0.863c0.353,0.307,0.927,0.573,1.716,0.804
		l-0.356,0.691l4.733,3.504l1.594,2.358l-2.956,3.563l-5.321,3.391l-0.712,2.128l-0.353-0.46l-1.954-0.229l-1.065,0.229
		l-1.002-1.322c-0.395-0.536-0.848-0.957-1.361-1.265l-2.012-1.209l-1.123-2.354h-0.592l-0.475-0.805l-1.359-0.345
		c-0.555-0.153-0.969-0.365-1.238-0.634l-1.243-1.148l-1.72,0.86l-0.708,1.495l-2.841,3.563v2.59l-1.892,2.93l-1.953,9.888
		l0.122,1.438l-2.664,13.508c-0.395,1.916-0.672,3.527-0.827,4.83l-0.535,0.346l0.241,0.688l-0.948,1.094l0.235,1.665l-0.235,1.381
		l-0.593,0.69c-0.156,0.152-0.392,0.977-0.707,2.471l-0.652,2.99l-1.064,2.127c-0.316,0.688-0.688,1.934-1.125,3.736l-2.244,2.126
		l0.471,1.495l-1.715,0.633l0.473,1.897l6.329,0.459h1.95l1.895,1.381l8.753,0.459l-0.888-0.228l1.715-0.231l4.142,0.231
		l1.895-0.231l1.359,0.746l3.609,0.576l1.357-0.863l2.546,0.287h1.596l1.064-0.515l3.018,0.515l-0.476-1.551
		c1.064-1.61,1.876-2.586,2.427-2.933l5.797-3.794l0.886-0.231l4.557-2.127l1.715,0.23c1.422,1.343,2.959,2.415,4.615,3.22
		l-0.828,1.841c-0.356,0.728-0.731,1.304-1.126,1.726l-1.83,1.837l-2.544,0.689c-0.437,0.538-1.224,1.725-2.368,3.564l-2.188,0.459
		l-0.648,0.805h-0.83l-2.427,1.666l-1.948-0.228l-1.066,0.689l-2.781-0.462l-3.016,1.899l-3.904-0.287l-0.472,0.747l-1.124-0.747
		l-2.13,0.517l-0.413,1.035l-3.019-1.035h-0.709l-1.954,1.035h-3.015l-2.779,0.229h-3.017l-4.73,0.574l-1.126-0.804l-1.537,0.804
		l-2.779-0.574l-9.938-0.229l-3.015-0.46l-0.295-0.805l-1.067,1.035l-0.828-0.23l-1.125,1.495h-1.95l-0.237-3.164l-0.827-0.228
		l-1.064,0.459l-2.427-1.035l-3.43,0.576l-2.426-0.808l-0.236-0.859h-1.656l-1.715-1.036l-0.712-3.794l2.427-0.229l1.301-3.163
		l1.361-0.402c0.393-0.114,1.515-0.805,3.372-2.068v-0.46l3.608-0.345l1.834,1.379c1.379,0.154,2.6,0.309,3.666,0.461l1.064,0.633
		h0.592l0.476,0.229h1.95l1.123,0.23l1.656-1.782c0.121-0.957,0.415-2.413,0.887-4.367l0.477-0.462l1.065-4.368l0.235-5.059
		l0.887-0.23l2.19-8.793l-0.298-5.69l1.714-2.357l-1.064-1.265l1.064-0.345l0.83-2.127l-0.593-0.46l1.125-6.266
		c-0.2-0.536-0.494-0.957-0.887-1.265v-1.323l0.65-0.344l0.236-5.519l1.064-1.897l-0.236-2.702l0.828-0.461l1.125-4.368l0.829-0.23
		l0.708-2.127l3.903-2.932l3.016-1.896h0.593l0.531-0.804l2.13-0.231l1.952-1.896l1.125-0.231l-0.534-0.632L1273.31,136.956z"/>
	<path fill="#614F2F" d="M1390.542,138.278c1.733,0.614,2.975,0.958,3.724,1.035l1.126,3.162l-1.362,2.471l-4.142,9.313v1.094
		l-1.652,0.573l-0.24,0.804h-0.886c0.435,0.576,0.729,1.65,0.886,3.221l-0.886,0.229l-0.236,3.508l-1.301,1.551l-0.355,2.244
		l-0.77,0.229l0.239,1.898l-0.593,1.264v2.127l-0.472,0.574v1.897l-0.828,1.896l6.622,1.035l0.472,0.459l2.961-0.345
		c0.629-0.077,1.141-0.229,1.537-0.46l1.598-1.035l2.423,0.345l2.778-1.437c2.094-0.536,3.711-1.092,4.854-1.667l2.66,0.518v4.195
		l-1.952,2.876v1.034l-1.716-0.23l-1.301,0.459l-1.719-0.229l-1.657,0.804l-0.765-0.575l-1.185,1.436l-4.143,0.805l-2.422,1.267
		h-2.779l-3.255,0.86l-0.234-0.574l-1.951,0.574l-1.363,2.127v8.221l-0.592,0.804l0.887,1.898l-0.295,2.355l0.535,1.898v1.896
		l1.301,0.805h2.779l2.188,0.575l0.353,2.128l-1.949,1.552l-0.356,1.61l-2.187,2.987l-0.477,1.84l-1.652,1.323l-0.535,1.667
		l-4.436,2.586c-0.551,0.881-1.026,1.484-1.419,1.811c-0.396,0.325-0.828,0.661-1.301,1.007l-0.593,0.459l-3.841,1.265l0.234-2.069
		l1.422-0.863l0.53-1.608l0.592-0.518l0.472-1.264l-1.594-1.437l1.358-6.093l-0.236-0.863l0.473-1.84l-0.473-1.092l1.302-3.736
		l-0.83-3.68l0.355-1.034l0.237-7.991l0.235-2.242l-0.235-0.518v-1.033l-1.301-2.127v-1.381l-2.543-0.286v1.667l-3.55-0.576h-1.064
		l-3.37,1.265v0.862l-3.313,0.576l-1.655-0.576l-0.237,0.576l-1.128-0.346l-3.842,0.689l-6.091,2.243l-0.712,1.206v8.68
		l-0.828,1.667l4.319,1.609v2.358l0.237,1.09l-1.066,0.805l-0.473,2.358l0.237,2.472l0.592,0.459
		c-0.396,1.035-0.867,1.782-1.421,2.242h-1.596v0.749l-0.767,0.572c-0.236,0.153-0.753,0.94-1.541,2.358h-0.472l-1.359,1.38
		l-3.017-0.575h-1.715l-1.301-1.035l0.294-1.15c0.12-0.343,0.553-0.861,1.301-1.551l0.24-2.646l-0.533-1.838l0.533-3.564
		l-0.24-2.125l0.828-2.934l-0.235-2.703l0.235-0.229v-1.553l0.828-1.839v-1.093l-0.828-1.379l0.828-2.99l-1.416-1.264l-1.835-0.231
		l-0.828,1.036l-0.886-0.576c-0.477,0.424-1.283,0.69-2.428,0.805l-1.184,1.094l-7.155,1.264h-0.71l-0.887,1.092l-2.189-1.092
		l-1.893,0.863l-0.65-1.094l0.65-1.494l-0.65-0.633l0.887-3.736l1.954-0.862l0.472-0.688l3.844-0.807l1.95,0.461l0.593,0.574
		l2.427-1.035l2.186,0.23l1.719-0.23l1.653,0.461l0.532-0.804l0.829-0.231l0.473,0.231l1.127-0.518
		c0.194,0.345,1.121,0.632,2.777,0.86l0.829-1.436l-0.591-3.967c1.063-1.342,1.713-2.49,1.949-3.447l-0.766-0.231l1.123-1.667
		l-1.123-3.508l0.766-4.023l-0.53-4.195l0.886-1.094l-0.355-0.803l0.83-1.897l-0.475-3.622l-2.128,0.115
		c-0.592,0.078-1.214,0.287-1.864,0.632s-1.272,0.883-1.862,1.61l-1.065-0.287l-1.064,0.977c-0.437,0.384-0.867,0.651-1.299,0.805
		l-1.777,0.576l0.533,2.356l-1.126,2.76l-0.235-1.669c-1.065,0.844-2.071,1.745-3.015,2.702l-0.887-0.574l-2.132,0.69l-0.237,0.688
		l-1.951,1.094v0.805l-3.551-1.035l-1.419-1.551v-2.243l1.064-2.931l2.781-2.933l2.188-0.862l1.479-1.033
		c0.473-0.308,1.438-0.749,2.897-1.322l0.594-0.805l2.422-0.46l0.593-0.806h1.361l2.544-1.896h1.834l0.588-0.863h2.427l2.129-1.092
		c0.275-0.115,0.771-0.652,1.479-1.609l1.301-0.116c0.435-0.077,1.104-0.382,2.011-0.919l0.237-1.092l1.656-0.23l0.887-1.035h0.828
		l1.598-1.896l3.015-1.035l2.783,0.23c0.864,1.15,1.792,2.127,2.779,2.932v2.703l-0.593,1.092l-3.014,0.459l-0.533,2.472
		l-1.539,4.829l-1.241,5.059v1.609l-1.065,1.092l0.237,1.897l-0.829,1.033l-1.95,8.853l-1.126,1.495l-0.236,2.989l0.649,1.035
		l2.13-0.231l2.663,0.806l2.841-0.574l6.271-0.461h1.479l0.472,0.461l3.843-0.807l0.65-0.516h2.133l2.423,0.516l1.715-0.978
		l-0.473-3.046l1.42-1.896l-0.711-1.783l0.889-2.701l-0.178-2.586l0.531-1.84l-0.531-1.669l0.531-1.436
		c0.159-0.46,0.592-1.074,1.305-1.841l-1.185-1.551l1.42-3.162v-1.896l-0.591-2.703l0.591-0.863l-0.591-0.804l1.716-2.932
		l0.471-0.23l0.356-2.932l0.828-0.516l0.533-1.149l1.654-0.69l3.312-2.703h1.895L1390.542,138.278z"/>
	<path fill="#614F2F" d="M1449.157,147.704l2.129,0.23l0.886,1.035l1.95,0.46l0.479,2.99l-0.889,0.573l-0.711,1.61l-4.729,3.448
		l-0.829,1.265l-8.225,19.316l-0.886,1.092l0.354,1.263l-0.828,0.577v2.355l-1.063,2.989c-0.673,1.226-1.242,2.664-1.715,4.312
		l0.235,0.229l-0.828,1.554l-1.361,9.197l0.236,2.355l-0.588,3.507l0.942,0.461l1.599-0.232l0.589-0.574l2.426-0.804l1.715-1.781
		l2.191-1.151c1.064-0.842,1.793-1.284,2.186-1.322l1.656-1.897l1.123-0.229l1.954-2.127h0.472l3.371-3.162l1.361-1.036l0.889-1.149
		c0.274-0.343,0.903-0.784,1.893-1.322l1.951-3.792h0.711c0.708-1.342,1.439-2.203,2.187-2.588l0.592-1.438l2.187-0.459l2.189-2.701
		h0.828l1.717-4.6l1.892,0.344l1.122-1.033l-0.353-1.094l0.59-1.149l2.19-9.541l0.827,0.229l0.828-1.896l2.838-2.357l2.899-1.609
		l1.185,0.23l0.942-1.15c0.12-0.116,0.22-0.193,0.299-0.23l1.771-0.977h0.77l0.356-0.805l1.537-0.23h0.888l1.063,2.299l-1.655,1.439
		l1.182,1.32l-3.012,12.244l-1.48,2.184l-1.538,15.234l0.236,5.864l0.828,2.701l-0.828,2.357l2.189,4.254l1.656,1.035l1.123-1.495
		h1.064l1.126,1.264l1.655,0.231v2.47l-1.953,1.322l-6.386,6.727l-4.615,3.392c-0.946-0.69-1.677-1.476-2.19-2.357h-2.542
		l-3.844-8.22l1.181-1.896l-1.951-1.899l-0.827-9.427l0.235-2.356v-3.161l0.592-1.668l-0.827-1.035l0.235-1.895l-0.235-1.035
		l-9.107,10.115l-1.897,1.668l-0.236,0.805l-3.902,3.392l-1.065,0.345l-1.125,2.127l-0.826,0.23
		c-0.595,0.767-1.399,1.475-2.424,2.127l-1.953,0.575l-1.065,1.093L1442,211.28h-1.953l-0.831,1.841
		c-2.165,1.15-3.822,1.86-4.963,2.126l-0.892,1.093l-1.3-0.288l-2.25,1.092c-0.668,0.308-2.03,0.652-4.08,1.035l-1.063,1.091
		l-2.543,0.231l-0.712-0.804l0.237-0.749l-0.887-0.574l1.125-3.794l1.653-4.426l-0.588-1.438l1.715-5.059l-1.479-2.126l1.479-2.703
		v-2.355l0.828-1.897l0.765-0.229l0.594-2.932l1.063-1.036v-0.861l-0.828-0.229l-0.235-2.702l0.827-0.805v-0.863l1.362-1.495v-6.724
		l1.657,1.898l0.173-1.955c0.041-0.652,0.277-1.342,0.712-2.07l-0.886-1.379l1.122-0.287l0.829-2.703l-1.715-0.23l0.649-2.126
		l1.302,1.322v-3.679l-0.827-0.805l-3.253,0.46l-4.141,1.896l-1.126,0.806l-2.543-1.265l-0.354-2.701l3.194-1.898l3.016-2.127
		l6.033-2.699l0.473-0.46l4.141-1.093l1.184-1.841l0.296,0.23l1.892-1.091v-0.576l3.078-0.805l-0.65-0.23l2.186-1.32
		L1449.157,147.704z"/>
</g>
<g>
	<path fill="#614F2F" stroke="#614F2F" stroke-width="4" stroke-miterlimit="10" d="M36.01,471.99l-1.619-2.783l-10.458-3.388
		l-5.852-6.171l-1.743-6.776l-2.864-2.178l-3.486-7.986v-6.171l1.743-2.42l-0.747-2.783l0.747-3.146l3.611-6.775l-1.868-5.203
		l1.868-0.969l2.241-6.171l-0.747-6.655l4.108-1.814v-4.478h2.241l1.245-5.202h0.623l1.245-1.694l-1.245-0.968h1.245l0.498-1.573
		v-5.445l7.595-5.445l-0.747-1.21l5.354-7.139h0.498l1.868-3.509l3.237-0.969v-2.299h1.245l0.622-2.904l5.852-6.654l0.996-0.605
		l0.747-1.21c1.825-1.773,2.78-2.822,2.864-3.146l1.245-0.848l2.241-3.872l8.715-7.744l4.109-4.84
		c0.663-0.887,1.494-1.612,2.49-2.178l3.86-2.178l0.498-1.694l6.35-2.178l-0.498-1.09c1.908-1.612,3.61-2.58,5.104-2.903v-0.484
		l1.743-2.783l4.606-1.693c4.066-3.468,7.138-5.524,9.213-6.172l8.093-2.782l2.365,0.968l2.739-0.968h0.872l3.237,0.968l0.747,3.024
		l1.619-0.726l0.747,0.726v1.452l1.743,4.72l0.996,17.908h-0.498l0.498,0.483l-2.739,12.343l-0.747-1.452l-1.121,6.171l0.498,2.541
		l-2.241,2.904h-0.498l-0.249,1.936l0.996,3.509l-1.245,4.235v0.968h-3.113l-2.241,5.688v0.483h-0.498l-6.35,7.503l-2.365,0.968
		l-1.245,3.024l-2.366-1.331l0.623,3.993l-1.121,1.694h-2.241l-0.498-1.21l-5.354-2.178l-2.365-4.961l0.498-3.993l0.872-0.484
		l8.092-21.296l5.603-6.413l1.245-7.261l-1.743-12.826l-6.599-1.814l-5.105,0.484l-3.361,1.814h-0.498l-2.49,3.388l-9.213,5.566
		l-3.611-0.604l-2.739,3.509l0.498,0.483v0.484l-2.863,0.726l-0.498,2.3c-2.241,1.693-4.939,3.913-8.093,6.654
		c-0.333,0.647-1.868,2.541-4.606,5.688v0.484l-2.864,1.814v0.968l-2.988,1.211v1.693H52.32l-5.852,8.471l0.747,0.968l-7.221,13.673
		l-2.739,0.968v1.21h1.494l-0.747,5.688l-1.743,3.267l-2.366,10.164l-2.49,2.179c-0.996,8.954-1.619,13.835-1.868,14.641
		l3.361,2.299l-0.747,8.35l1.743,7.986c2.407,3.55,3.776,6.857,4.109,9.922l3.61-1.815l3.735,4.235l6.474,5.445
		c4.314,0.968,7.968,1.572,10.956,1.814l5.603-3.024l1.743,2.299l10.956-2.783l3.113,1.452l0.498-0.968l16.31-4.72h2.241
		l8.715-5.687l7.844-2.178l5.852-2.3l7.719-5.203h1.743l2.863-2.178l11.455-11.132l3.61-2.299l-1.868-6.172l-7.346-3.509
		l0.498-2.662l26.52-11.374l0.747-1.089c2.905-0.806,4.607-1.531,5.105-2.178h1.743l1.868,4.477h1.494l-1.494,6.655h-1.868
		l-2.241,4.478v-0.969l-1.245,0.969l-1.37,4.234l-5.603,5.445l-0.498-1.21c-2.657,3.793-4.276,5.85-4.855,6.171v1.694l-5.603,3.509
		c-0.582,0.726-1.164,1.291-1.743,1.694h-2.739l-0.872,1.452c-1.661,0.646-2.988,2.219-3.984,4.719l-7.968,3.751l-0.747,0.726
		l-0.498-0.726c-1.578,0.726-2.947,1.896-4.108,3.509h-0.996l-1.743,2.178l-1.37-0.483L129.76,449l-4.606,0.484l-2.366,2.299
		c-0.747,0.726-2.822,1.856-6.225,3.388v0.484l-1.867-0.484c-1.08,0.163-2.409,0.889-3.984,2.178l-0.498,2.783l-2.365-0.483
		l-2.241,1.21v0.483H101c-2.241,2.26-4.504,3.833-6.786,4.72c-2.284,0.889-6.661,1.936-13.135,3.146v1.573l-5.603-0.484v2.179
		l-3.112-0.484l-0.996,0.484v0.726h-3.486l-0.623,2.299l-6.848,0.727L36.01,471.99z"/>
	<path fill="#614F2F" stroke="#614F2F" stroke-width="4" stroke-miterlimit="10" d="M266.216,274.032l1.868-1.331l2.739,1.815
		l2.365-0.484l1.743,2.178l3.61-0.968c1.743,0,3.07,0.889,3.984,2.662l4.606,8.47c0,4.438-1.329,6.655-3.984,6.655h-1.37
		l-5.603,6.292l0.498,1.21l-1.245-0.726c-0.831,1.775-2.533,2.743-5.104,2.904v0.968c-1.827-2.258-6.474-4.88-13.944-7.865
		l-1.619,1.21l-0.747-1.21c-1.164,1.373-2.284,3.43-3.362,6.171c-0.831,0.646-1.245,1.291-1.245,1.937
		c0,0.404,0.165,0.928,0.498,1.572c-1.08,1.05-1.992,2.179-2.739,3.389v3.993c-0.498,2.259-1.288,4.477-2.366,6.654h-0.498
		c-1.163,2.825-1.743,5.647-1.743,8.471c-0.996,0.323-1.494,1.251-1.494,2.783c0,0.807,0.082,1.372,0.249,1.693
		c-0.333,1.937-0.872,3.591-1.619,4.961h-0.747c-1.494,2.904-2.241,4.478-2.241,4.72l-0.498-0.727v1.21
		c-1.827,3.551-3.031,6.697-3.611,9.438l-1.494,7.381v5.688l0.498,1.089c-0.333,0.646-0.914,1.372-1.743,2.178l-0.622-0.483
		l-1.245,2.661v5.203l-2.241,3.993v6.655l-0.996,4.478v5.202l-3.112,12.947l-0.498,8.954c-0.666,0-0.996,0.242-0.996,0.727
		c0,0.404,0.331,0.726,0.996,0.968l-0.498,3.993c0.912,1.775,2.282,2.662,4.108,2.662l0.498-1.694l4.606-6.171h0.498v-1.089
		c1.245-1.29,2.739-3.347,4.482-6.171c1.743-2.823,3.361-4.314,4.855-4.478l2.366-3.388l0.996,0.483
		c0.912-1.047,1.494-1.976,1.743-2.782l0.498,0.483l0.872-2.662l0.996,0.484l0.996-2.42c0.165-0.563,0.704-1.21,1.619-1.937
		l3.237-2.783l7.346-3.509l-0.498-0.483l10.957-7.503l5.354-2.661c0.996-0.806,2.116-1.411,3.361-1.815l4.109,2.299l3.984,0.484
		l1.37,0.726c0.331,0.163,0.664,0.646,0.996,1.452c0.331,0.808,0.498,1.252,0.498,1.331v2.662l3.112,6.171l-0.872,5.203l2.615,4.961
		l0.498,6.292l1.743,7.865l-3.984,4.478l0.498,2.178c4.564,2.501,6.848,6.05,6.848,10.648l-0.996,3.992l2.241,5.688l-0.498,5.687
		l0.996,7.744c-0.333,0.405-0.769,0.889-1.307,1.452c-0.541,0.565-0.852,0.889-0.934,0.969c1.66,1.451,3.611,2.703,5.852,3.751
		c0.913-1.21,1.868-2.097,2.864-2.662c0.996-0.563,2.323-1.734,3.984-3.51h2.366l0.747-1.21l1.245-0.483v-1.331l3.361-2.42
		c0.996-0.484,2.198-1.25,3.611-2.3l4.233-3.146c0.996-0.079,2.074-0.685,3.237-1.815c1.161-1.128,2.033-1.854,2.614-2.178
		l3.611-0.242l0.498-1.693l6.599,1.936l-0.498,2.178l0.498,4.478c-2.574,1.856-4.109,3.953-4.606,6.292l-0.498-0.605l-1.245,2.3
		l-2.241,1.21l-0.498,1.452c-2.159,0.564-4.649,1.009-7.47,1.33v0.969c-2.739,1.291-4.69,1.936-5.852,1.936l-0.747,3.751
		l-2.614,1.452c-1.911,1.694-4.109,2.541-6.599,2.541c-1.827,3.226-3.694,4.88-5.603,4.961l-3.61,3.872l-4.482,0.605v0.968
		c-0.914,0-3.404,0.726-7.47,2.178l-0.498,1.21l-1.245-0.483c-0.498,1.854-2.449,2.783-5.852,2.783
		c-1.413,0-2.926-1.211-4.544-3.631s-2.428-3.872-2.428-4.355v-0.968c-0.666-5.487-0.996-9.276-0.996-11.375l0.249-1.21
		l-0.996-3.267v-6.171l-3.237-4.478l0.498-3.993l-1.369-14.156l2.614-8.834l-5.354-6.171c-1.91-2.097-2.864-5.082-2.864-8.954
		h-0.498c0.664-1.129,0.996-1.976,0.996-2.541c0-2.097-1.494-3.307-4.482-3.63l-3.611,1.694h-2.365l-0.498,2.178l-0.498-0.726
		c-0.249,3.711-1.868,5.768-4.855,6.171v0.847c-2.49,1.452-3.735,2.904-3.735,4.356l0.249,1.573c0,0.483-0.083,0.888-0.249,1.21
		l-1.868,0.483l-1.743,3.993l-1.743,1.21c-0.167,2.501-1.702,4.719-4.606,6.655c-0.498,2.42-1.868,4.316-4.109,5.687
		c-1.245,3.309-2.947,5.971-5.104,7.986l-1.743,6.655l3.486,2.783l-3.984,3.993h-0.872l-1.494,4.355v3.993l-1.245,1.815
		l-0.996,2.662c-0.167,0.483-0.747,1.168-1.743,2.057l-3.61,3.146l-1.37-0.727l-0.996,3.025h-1.245
		c-0.831,1.773-2.366,2.662-4.606,2.662l-0.498,3.993h-2.241l-2.365,2.661l-3.486-0.483c-0.582,0.887-1.37,1.814-2.366,2.783
		l-2.241-3.268c1.161-0.889,1.743-1.936,1.743-3.146c0-0.727-0.416-1.736-1.245-3.025c0.58-0.242,0.934-0.687,1.058-1.331
		c0.125-0.646,0.518-2.259,1.183-4.84h-0.498c0.664-1.131,0.996-2.22,0.996-3.268c0-0.968-0.167-1.936-0.498-2.903h0.747
		c0.331-4.599,1.121-7.986,2.366-10.164c-0.498-1.048-0.747-1.895-0.747-2.541l0.747-3.751v-1.694l1.743-5.445h0.498v-1.21
		l1.867-7.986l0.498,0.727l-0.498-3.872l0.996-2.541l2.241-1.452l-2.241-3.509l2.241-8.35v-2.299
		c0.829-0.484,1.245-1.047,1.245-1.694l-0.498-2.299v-0.483h1.121l-0.623-6.655v-1.694l0.623-1.331h-0.623l0.623-4.355
		c0.912-1.371,1.597-3.005,2.054-4.901c0.455-1.894,0.685-2.923,0.685-3.085v-3.268l2.241-2.903
		c1.078-0.242,1.619-0.766,1.619-1.573c0-1.21-0.707-3.268-2.117-6.171l2.366-5.203v-4.478l1.743-4.961l0.498,0.605l0.747-4.478
		l0.872-2.541l-0.374-0.968c0-0.968,0.623-2.299,1.868-3.993h-0.747c0-0.645,0.249-1.21,0.747-1.694l-0.747-0.483
		c1.161-1.694,1.743-2.862,1.743-3.509v-0.969h0.747c0.331-2.015,0.829-3.346,1.494-3.993l1.868-0.483v-2.904
		c0.664-2.662,0.996-4.84,0.996-6.534v-3.993c0-0.968,0.249-1.936,0.747-2.903l1.245-0.484v-4.719l1.369-3.751
		c1.327-1.532,1.992-3.51,1.992-5.93v-1.452l2.241-6.171c0-1.047,0.455-1.976,1.37-2.783h0.498l2.739-7.985
		c1.825-2.742,3.029-4.356,3.611-4.841c4.482-0.563,7.552-3.064,9.213-7.502c1.411,0,2.572-0.563,3.486-1.693l4.606-0.969
		l3.611,0.484l2.241-1.331L266.216,274.032z"/>
	<path fill="#614F2F" stroke="#614F2F" stroke-width="4" stroke-miterlimit="10" d="M445.251,353.288
		c0.58-0.161,2.198-0.079,4.855,0.242c2.655,0.323,4.357,0.889,5.104,1.693l4.233-0.968l2.365,0.242l1.743,3.267l-0.249,2.421
		c-1.661,1.291-2.782,2.703-3.361,4.234h-1.245l-1.37,1.452c-0.417,0.404-2.159,1.089-5.229,2.058l-0.249,22.506l1.992,11.616
		l0.249,11.979l1.868,14.642l7.844,20.813c1.411,1.533,2.366,2.743,2.864,3.63c4.149-2.258,6.764-3.389,7.844-3.389
		c3.402-3.79,5.603-5.766,6.599-5.929v-1.331l14.069-11.616l0.249-2.178c0.913-0.161,2.696-1.733,5.354-4.719l4.606,0.968
		l2.49,5.445l-0.996,4.719l-2.49-0.968l-1.245,2.662h-2.365c-0.915,2.42-2.284,4.397-4.109,5.929v1.331l-6.848,6.171l-1.245,3.146
		c-1.578,1.049-4.233,2.461-7.968,4.234l-0.996,1.815l-0.249-0.605l-1.494,2.541l-3.361,0.969l-0.498,1.693h-1.743l0.747,1.815
		l-1.992,3.751l-1.868,0.484c0.166,1.291-1.204,3.669-4.108,7.139l-5.852,0.242l-1.245,3.509l-3.611,0.968
		c-2.739-0.726-4.939-2.38-6.599-4.961l-8.341-13.189l-7.968-17.303l0.747-6.413l-1.743-5.688l1.245-0.241
		c-2.409-4.678-3.611-8.229-3.611-10.648l0.623-4.477l-3.859-2.3l-2.615,1.573v-0.604l-1.245,0.604l-3.361,8.35l-1.743-0.727
		l-0.498,1.694l-1.245-0.484v1.089h-0.498c-0.083,0.484-1.288,2.541-3.61,6.171l-0.996-0.483l-0.747,5.203l-2.615,1.331
		c-1.743,0.889-2.863,1.936-3.361,3.146l-0.996,2.42l1.121,1.452l-2.864,0.968l-1.245,4.962l-2.116,1.089l0.623,0.968
		c-1.992,1.452-3.611,2.42-4.856,2.904l-1.12,1.814l-0.996-1.331l-1.743,4.235h-1.494l-2.117,7.019l-2.241,0.726l-0.249,3.63h-3.611
		l-3.61,7.986l-1.743,1.21h-1.494l-0.498,2.299l-7.968,2.904l-8.342,0.242l-3.611-22.99l1.494-3.025l0.374-2.42
		c0.082-0.645,1.078-3.064,2.988-7.26l-0.498-1.694c1.494-3.307,2.49-5.282,2.988-5.929l-0.996-0.484l2.366-5.929l0.125-2.3
		c0.082-0.645,0.704-2.136,1.868-4.477c-0.666-3.872-1.329-6.09-1.992-6.655l0.996-1.694l3.237,0.484
		c1.909-2.499,3.113-3.83,3.611-3.993l0.747-2.178h0.498l-1.743-2.541l1.494-6.413l0.996,0.484c0.996-2.5,1.618-3.752,1.867-3.752
		l-0.498-3.146l3.486-6.292v-1.694l-0.747-1.452l5.104-10.647l5.852-7.744c1.992-1.694,3.692-3.589,5.105-5.688l4.357-1.693
		l5.852-5.93l5.603-3.267h3.362l2.739-0.727h3.859l1.743-2.783l3.61,0.242h3.611v-0.968c0.996,0.081,2.074,0.484,3.237,1.21
		l3.86-1.452l2.863,0.727l0.747-0.969l2.988,0.969L445.251,353.288z M413.129,372.406l-3.112,0.484l-3.86-0.242l-1.245,2.178v1.815
		c-1.329,0.646-2.782,1.21-4.358,1.693l-2.241,5.445c-1.163,4.84-1.867,7.302-2.116,7.381h-1.245l-1.743,3.993l-0.872,3.389
		c-0.249,1.049-1.08,1.896-2.49,2.541l-1.245,4.234l-1.992,3.63c-0.747,1.373-1.121,2.825-1.121,4.356v0.968l-1.245-0.968v1.936
		h-0.747l0.249,1.211l-0.996,2.057l-1.494,6.413l-2.615,5.203l-0.498,7.381l-0.747,1.089h-0.498l-0.498,2.178l0.996,0.969
		l-1.245,4.477h-0.498l0.498,1.452h-1.868l0.249,8.954l1.121,4.235h0.498l2.739-2.541l7.221-9.923l12.948-16.577l3.86-3.992
		l8.591-13.553l8.964-11.616l0.747-2.541l-1.743-2.178l3.237-5.445l0.747-4.114c0.082-0.402,0.788-1.451,2.117-3.146l0.249-9.68
		l-3.362-0.242h-2.739l-3.61-2.42l-0.747,1.21L413.129,372.406z"/>
	<path fill="#614F2F" stroke="#614F2F" stroke-width="4" stroke-miterlimit="10" d="M563.404,360.669
		c1.992,0.889,3.113,2.22,3.362,3.993c-2.241,2.341-3.362,5.729-3.362,10.164v1.815c-0.831,0.807-1.245,1.614-1.245,2.42
		c0,0.889,0.166,1.533,0.498,1.936h0.747l-0.747,3.51l-2.241,0.483l-0.996,3.993h-0.747c0.249,1.373,0.829,2.26,1.743,2.662
		c2.074-0.161,5.395-2.702,9.96-7.623l0.498,0.484l12.699-9.196l2.366-0.484l5.852-3.146l4.606-1.331
		c2.905-2.42,7.47-3.71,13.695-3.872c2.821,1.614,4.688,2.42,5.603,2.42c1.078,0,1.619,0.323,1.619,0.968
		c0,0.565-0.374,2.22-1.121,4.961l-5.354,3.025l-2.988,3.63l-8.715,3.993l-3.237-1.452h-2.365v0.484
		c-5.976,2.259-11.414,3.913-16.31,4.961c-2.325,4.437-6.599,10.245-12.824,17.424c-6.225,7.181-9.421,12.626-9.587,16.335
		l-0.747,17.545l-4.855,7.865l0.498,11.012c-0.333,1.291-0.893,2.643-1.681,4.053c-0.79,1.413-1.35,2.644-1.681,3.691
		c-0.333,1.049-1.494,3.066-3.486,6.05l-2.241,0.604c-0.582,0.08-2.823,1.613-6.723,4.599h-6.35l-2.863,0.968l-4.109-3.872
		c0-2.341,0.872-5.243,2.615-8.712c1.743-3.468,2.739-6.009,2.988-7.623c1.162-7.986,3.319-12.705,6.474-14.157l1.245-3.509
		l-0.498-2.179l0.996-1.814l-3.361-5.445v-1.694l-0.747-10.647c1.161-0.806,1.949-1.21,2.365-1.21c0.664,0,1.411,0.404,2.241,1.21
		l4.855-6.171l-0.747-4.478l1.245-5.203l-2.988-2.299v-12.342l-4.607,3.509h-2.863l-4.109,2.662l-3.984-0.968l-4.108,0.483
		c-2.241,0-3.362-0.726-3.362-2.178c0-2.42,1.245-5.282,3.735-8.591c2.49-3.307,6.266-6.332,11.33-9.075v-0.484l3.361-0.484
		c1.327-2.338,2.864-3.509,4.607-3.509c0.996-0.402,2.116-1.189,3.361-2.359c1.245-1.168,4.025-2.762,8.342-4.779l3.237,1.693
		l2.614-1.21l3.86-0.968L563.404,360.669z"/>
	<path fill="#614F2F" stroke="#614F2F" stroke-width="4" stroke-miterlimit="10" d="M707.579,353.288
		c0.58-0.161,2.198-0.079,4.855,0.242c2.655,0.323,4.357,0.889,5.104,1.693l4.233-0.968l2.365,0.242l1.743,3.267l-0.249,2.421
		c-1.661,1.291-2.782,2.703-3.361,4.234h-1.245l-1.37,1.452c-0.417,0.404-2.159,1.089-5.229,2.058l-0.249,22.506l1.992,11.616
		l0.249,11.979l1.868,14.642l7.844,20.813c1.411,1.533,2.366,2.743,2.864,3.63c4.149-2.258,6.764-3.389,7.844-3.389
		c3.402-3.79,5.603-5.766,6.599-5.929v-1.331l14.069-11.616l0.249-2.178c0.913-0.161,2.696-1.733,5.354-4.719l4.606,0.968
		l2.49,5.445l-0.996,4.719l-2.49-0.968l-1.245,2.662h-2.365c-0.915,2.42-2.284,4.397-4.109,5.929v1.331l-6.848,6.171l-1.245,3.146
		c-1.578,1.049-4.233,2.461-7.968,4.234l-0.996,1.815l-0.249-0.605l-1.494,2.541l-3.361,0.969l-0.498,1.693h-1.743l0.747,1.815
		l-1.992,3.751l-1.868,0.484c0.166,1.291-1.204,3.669-4.108,7.139l-5.852,0.242l-1.245,3.509l-3.611,0.968
		c-2.739-0.726-4.939-2.38-6.599-4.961l-8.341-13.189l-7.968-17.303l0.747-6.413l-1.743-5.688l1.245-0.241
		c-2.409-4.678-3.611-8.229-3.611-10.648l0.623-4.477l-3.859-2.3l-2.615,1.573v-0.604l-1.245,0.604l-3.361,8.35l-1.743-0.727
		l-0.498,1.694l-1.245-0.484v1.089h-0.498c-0.083,0.484-1.288,2.541-3.61,6.171l-0.996-0.483l-0.747,5.203l-2.615,1.331
		c-1.743,0.889-2.863,1.936-3.361,3.146l-0.996,2.42l1.121,1.452l-2.864,0.968l-1.245,4.962l-2.116,1.089l0.623,0.968
		c-1.992,1.452-3.611,2.42-4.856,2.904l-1.12,1.814l-0.996-1.331l-1.743,4.235h-1.494l-2.117,7.019l-2.241,0.726l-0.249,3.63h-3.611
		l-3.61,7.986l-1.743,1.21h-1.494l-0.498,2.299l-7.968,2.904l-8.342,0.242l-3.611-22.99l1.494-3.025l0.374-2.42
		c0.082-0.645,1.078-3.064,2.988-7.26l-0.498-1.694c1.494-3.307,2.49-5.282,2.988-5.929l-0.996-0.484l2.366-5.929l0.125-2.3
		c0.082-0.645,0.704-2.136,1.868-4.477c-0.666-3.872-1.329-6.09-1.992-6.655l0.996-1.694l3.237,0.484
		c1.909-2.499,3.113-3.83,3.611-3.993l0.747-2.178h0.498l-1.743-2.541l1.494-6.413l0.996,0.484c0.996-2.5,1.618-3.752,1.867-3.752
		l-0.498-3.146l3.486-6.292v-1.694l-0.747-1.452l5.104-10.647l5.852-7.744c1.992-1.694,3.692-3.589,5.105-5.688l4.357-1.693
		l5.852-5.93l5.603-3.267h3.362l2.739-0.727h3.859l1.743-2.783l3.61,0.242h3.611v-0.968c0.996,0.081,2.074,0.484,3.237,1.21
		l3.86-1.452l2.863,0.727l0.747-0.969l2.988,0.969L707.579,353.288z M675.457,372.406l-3.112,0.484l-3.86-0.242l-1.245,2.178v1.815
		c-1.329,0.646-2.782,1.21-4.358,1.693l-2.241,5.445c-1.163,4.84-1.867,7.302-2.116,7.381h-1.245l-1.743,3.993l-0.872,3.389
		c-0.249,1.049-1.08,1.896-2.49,2.541l-1.245,4.234l-1.992,3.63c-0.747,1.373-1.121,2.825-1.121,4.356v0.968l-1.245-0.968v1.936
		h-0.747l0.249,1.211l-0.996,2.057l-1.494,6.413l-2.615,5.203l-0.498,7.381l-0.747,1.089h-0.498l-0.498,2.178l0.996,0.969
		l-1.245,4.477h-0.498l0.498,1.452h-1.868l0.249,8.954l1.121,4.235h0.498l2.739-2.541l7.221-9.923l12.948-16.577l3.86-3.992
		l8.591-13.553l8.964-11.616l0.747-2.541l-1.743-2.178l3.237-5.445l0.747-4.114c0.082-0.402,0.788-1.451,2.117-3.146l0.249-9.68
		l-3.362-0.242h-2.739l-3.61-2.42l-0.747,1.21L675.457,372.406z"/>
	<path fill="#614F2F" stroke="#614F2F" stroke-width="4" stroke-miterlimit="10" d="M873.417,456.381l-3.984,4.961l-3.237,1.815
		c-1.08,0.565-2.159,1.614-3.237,3.146c-1.827,0.484-2.988,1.05-3.486,1.694h-2.863l-2.988,0.484l-14.567,7.018l-2.241-0.726
		l-1.12,1.21l-3.984,0.968l-1.37,1.694l-2.241,0.726l-2.864,1.573l-2.739,0.484c-0.831,0.16-2.449,0.968-4.855,2.42h-2.863
		l-2.739,2.299l-0.747-1.331l-0.498,2.299l-4.108-0.483l-3.362,2.178h-1.743l-6.35,1.814l-5.104-2.299l-2.614-3.509l-9.711-11.132
		l-0.498-6.171l0.498-2.179h-1.743l-0.747-16.093l1.245-6.534l-0.498-1.694v-3.267l1.743-2.904l-0.498-5.687l3.361-15.126v-2.299
		l1.245,1.815l-0.747-3.993l3.611-10.164v-1.694l4.606-7.26c0.58-2.662,1.327-4.557,2.241-5.688v-2.662l4.108-4.477l4.607-3.025
		l6.35-6.654l9.462-5.688l7.097-2.299h5.603l5.104-2.179l0.498,0.484h4.108l4.607-1.452h2.988l2.366,0.968v1.694
		c1.078,0.889,2.447,1.494,4.108,1.815v0.968l3.984,1.694v3.024l-1.245,2.179c-0.915,0.726-2.117,2.38-3.611,4.961
		c-1.91,0.807-3.61,1.735-5.104,2.782l-2.241-0.604l-1.743,3.509h-2.366l-2.241,0.968v4.478h-2.863l-4.109,0.726h-1.743
		l-4.108,2.783l-1.743-0.483l-0.996-2.3v-2.178l-1.245-1.21l-4.607,0.484l-1.867,2.903l-0.498,1.815l-5.105,5.929l-1.743,5.688
		l-1.992,4.477l-1.121,5.445l-1.992,5.203l-1.245,16.335l2.241,15.367v1.452l1.868,2.299v5.688l5.104,8.954l0.996-0.605l1.743,1.815
		h3.61l4.109-2.783v0.968l2.241-0.968l6.848-1.21l4.109-1.694h1.743l0.498-0.483l4.109,0.483c2.241-1.531,5.146-2.862,8.715-3.993
		l-0.498-0.968l1.743,0.484c1.743-0.563,3.86-1.492,6.35-2.783l2.365,0.484l0.498-1.452l5.354-0.969l3.237-1.21h3.859l2.615,2.904
		L873.417,456.381z"/>
	<path fill="#614F2F" stroke="#614F2F" stroke-width="4" stroke-miterlimit="10" d="M962.685,329.935
		c0,1.694-1.369,4.68-4.107,8.954v2.299l-2.74,6.172v3.992l-3.611,8.35v1.21c0,1.856,0.623,2.783,1.869,2.783l3.984-1.21
		c2.57,1.452,4.73,2.178,6.473,2.178h5.604c5.145-1.289,9.045-1.936,11.703-1.936c3.07,0,6.391,0.241,9.961,0.726v0.726l4.605,0.484
		l4.232,4.961l-3.982,4.961l-7.223,0.969l-7.096,3.751l-2.74,0.483c-0.914,0.163-2.283,0.848-4.107,2.058l-7.719-0.848
		c-0.498,0.727-2.783,1.171-6.848,1.331l-12.824,0.484c-3.734,2.501-6.184,4.397-7.346,5.687l0.498,6.172l-1.744,2.782l-0.996,8.833
		l-3.111,3.993l-0.498,10.648l-3.113,1.694l-0.498,3.024l1.867,6.171l-2.365,22.386l5.105,19.239l5.852-2.42
		c1.078-2.179,3.193-3.268,6.35-3.268h2.365c4.066-1.289,7.137-3.509,9.213-6.654l5.852-1.694l-0.746-0.605l1.742-2.178
		c1.576-1.129,2.572-2.137,2.988-3.025l3.611-1.21l0.996-2.178c1.244,0,1.867-0.604,1.867-1.815
		c1.494-2.499,5.145-4.556,10.955-6.171c1.162,0.565,1.744,1.331,1.744,2.3c0,1.451-0.748,4.195-2.242,8.228
		c-1.492,4.035-3.443,6.897-5.852,8.591l-6.971,4.72l-2.117,2.782c-0.746,1.131-1.701,1.937-2.863,2.421l-4.482,1.936l-3.486,0.968
		l-7.471,6.534l-4.48,0.484l-5.729,4.477l-2.365,2.299c-0.416,0.403-1.287,0.848-2.615,1.331l-15.811,6.051l-3.611,0.483
		l-2.863,2.179l-5.852-3.751l-1.743-7.382l-1.867-3.872c-0.498-1.21-2.16-9.843-4.98-25.894c0.166-0.563,0.913-1.976,2.241-4.235
		v-4.235l3.112-1.21l3.735-10.164l-1.245-3.388c3.486-0.645,5.373-1.129,5.665-1.452c0.29-0.321,0.436-0.685,0.436-1.089
		c0-0.321-0.416-1.29-1.245-2.904l4.108-11.979l1.246-10.648l5.602-14.642c-0.332-1.773-1.537-3.527-3.609-5.264
		c-2.076-1.733-4.109-2.762-6.102-3.085l-4.855,2.904H908.9c-2.408,0-4.13-0.282-5.167-0.848c-1.039-0.563-1.599-0.847-1.681-0.847
		c-0.747,0-1.702,0.404-2.863,1.21c-0.747,1.694-1.743,2.541-2.988,2.541h-0.498c-0.417,0.162-1.121,0.242-2.117,0.242
		c-0.914,0-2.533-0.161-4.855-0.484c-1.661-4.517-2.49-7.26-2.49-8.228c0-0.969,0.601-2.783,1.806-5.445
		c1.202-2.662,2.468-3.993,3.797-3.993l1.743,0.242l3.611-0.968c2.323-0.646,3.941-0.969,4.855-0.969h0.747
		c0.331,0.163,0.829,0.242,1.494,0.242c0.829,0,1.556-0.16,2.179-0.483c0.623-0.322,1.348-0.484,2.179-0.484
		c1.078,0,1.825,0.162,2.241,0.484l4.606-2.3h1.37c1.244,0,2.365-0.16,3.361-0.483c0.996-0.321,2.24-1.976,3.734-4.961l2.74,0.483
		c0.248-1.612,1.285-3.993,3.111-7.139c1.494-0.08,2.242-1.25,2.242-3.509v-1.452l-0.748,0.968c1.246-3.146,2.283-5.524,3.113-7.139
		l-0.748-4.72l5.354-9.922c1.494-2.178,3.443-3.509,5.852-3.993c1.66-2.42,4.439-4.799,8.342-7.139c3.9-2.339,6.475-3.51,7.721-3.51
		c2.904,0,4.688,1.252,5.354,3.752l-3.611,6.896V329.935z"/>
	<path fill="#614F2F" stroke="#614F2F" stroke-width="4" stroke-miterlimit="10" d="M1056.809,361.758l3.113,0.484h0.497
		l-0.497,1.21h0.995l1.743,1.694l5.852,0.483h5.852l3.362,1.815h1.245l1.867,6.171l-2.614,2.178v2.3l4.108,3.992l-0.498,11.133
		h-1.743l-0.622,2.178h-0.498v3.509l2.365,0.484l0.996,1.21l-1.494,2.299v1.694l-3.112,1.452l-2.241,1.814l-6.475,3.389
		c-1.743,1.774-3.236,3.105-4.481,3.992l-1.868,4.962l-10.956,4.234l-10.956-0.242l0.498,2.662h-2.241l-0.498,0.727l-5.354,1.089
		l-0.498-1.815l-1.867,0.727v1.089l-4.607,1.694l-1.742,4.961l2.365,6.171v3.025l1.245,2.661c-1.661,4.761-2.863,7.261-3.61,7.503
		l0.747,2.178l-1.245,0.483l2.863,1.211v3.751l2.49,1.693c4.149-1.21,6.68-2.097,7.595-2.662l1.867,1.694l0.498-0.484
		c3.402-0.321,6.101-0.726,8.093-1.21l0.871-1.452h2.988l2.365-0.241l2.988,1.452l-0.747-0.969h2.49l3.112-2.541l3.611-0.242h-0.747
		l3.485-1.451l0.996,0.726l1.868-1.694h2.49l2.365-2.299c1.824-0.079,4.771-1.129,8.84-3.146v-1.331l3.61-0.969l3.859-5.444
		l4.108,0.483c1.411,1.292,3.07,2.058,4.98,2.3l1.867,1.693l-2.863,5.203l0.498,3.268l-3.984,2.178l-0.498,1.21l-5.976,0.726
		l-3.237,3.268l-3.61,0.242l-0.996,2.782l-4.855-0.483l-1.494,3.388l-3.859-0.483l-1.494,1.693c-2.823,1.05-4.276,1.654-4.357,1.815
		l-1.743-0.968l-2.864,2.661h-4.108l-2.49,1.21h-1.494l-1.867,1.573c-2.159,0.563-4.357,1.452-6.599,2.662l-1.743-1.21h-3.61
		l-1.494,1.21l-1.369-0.483l-1.743,0.483l-0.498-0.483l-1.245,2.782h-3.361l-2.739,1.452c-0.914,0.484-2.906,0.887-5.977,1.21
		l-1.245,1.21h-2.24l-3.362,0.484l-2.49,3.025l-3.361-1.21l-1.743,2.178l-1.369-0.363c-0.333-0.081-1.992-1.614-4.98-4.598
		l0.498-2.904l-0.498-1.573l0.498-2.904l-1.867-4.477l0.747-3.509l-1.245-5.445l1.245-4.477l-1.743-6.897l-0.498-0.484l0.498-3.509
		l4.108-1.452v-2.42l-1.743-0.604l0.498-3.146l-1.12-1.815l0.622-2.903l1.743-0.969l-0.498-2.782l0.498-4.72l0.996-0.483
		l1.743-5.688l4.108-7.139l3.61-1.331l0.498-3.872l-0.498-1.089l0.498-2.179l2.241-1.21l1.37-3.993h-3.113v-1.451l1.245-1.815
		l-0.498-1.694l0.498-1.693h0.498v-3.993l4.108-0.484l1.743-3.509l8.716-9.438h1.743c0.995-1.531,2.281-2.822,3.859-3.872
		l1.743,0.484c1.161-0.402,2.53-1.733,4.108-3.993h1.245l2.365-1.452h0.996l1.743-2.541L1056.809,361.758z M1053.821,382.328
		l-4.357,1.452l-3.361-1.452c-1.992,1.615-3.61,2.743-4.855,3.389c-0.249,2.099-1.102,3.872-2.553,5.323
		c-1.453,1.452-2.471,2.179-3.05,2.179h-2.241l1.494,2.662c-0.914,1.614-2.117,4.113-3.61,7.502l-1.992-0.484l-0.747,3.146
		l0.747,4.477l2.49,1.331c0.746,0.404,2.82,0.889,6.225,1.452l3.984-2.541l8.217-0.726l4.357-6.172l5.852-4.719l0.747-8.954
		l-1.991-2.904l-0.249-4.234h-2.864L1053.821,382.328z"/>
	<path fill="#614F2F" stroke="#614F2F" stroke-width="4" stroke-miterlimit="10" d="M1162.139,360.669
		c1.992,0.889,3.112,2.22,3.361,3.993c-2.241,2.341-3.361,5.729-3.361,10.164v1.815c-0.831,0.807-1.245,1.614-1.245,2.42
		c0,0.889,0.165,1.533,0.498,1.936h0.747l-0.747,3.51l-2.241,0.483l-0.996,3.993h-0.747c0.249,1.373,0.829,2.26,1.743,2.662
		c2.074-0.161,5.395-2.702,9.961-7.623l0.497,0.484l12.7-9.196l2.365-0.484l5.852-3.146l4.606-1.331
		c2.904-2.42,7.471-3.71,13.695-3.872c2.821,1.614,4.688,2.42,5.603,2.42c1.078,0,1.619,0.323,1.619,0.968
		c0,0.565-0.374,2.22-1.121,4.961l-5.354,3.025l-2.988,3.63l-8.715,3.993l-3.237-1.452h-2.365v0.484
		c-5.977,2.259-11.414,3.913-16.31,4.961c-2.325,4.437-6.6,10.245-12.824,17.424c-6.226,7.181-9.422,12.626-9.587,16.335
		l-0.747,17.545l-4.855,7.865l0.498,11.012c-0.333,1.291-0.893,2.643-1.681,4.053c-0.79,1.413-1.351,2.644-1.681,3.691
		c-0.333,1.049-1.494,3.066-3.486,6.05l-2.241,0.604c-0.581,0.08-2.822,1.613-6.723,4.599h-6.35l-2.864,0.968l-4.108-3.872
		c0-2.341,0.872-5.243,2.614-8.712c1.743-3.468,2.739-6.009,2.988-7.623c1.161-7.986,3.319-12.705,6.475-14.157l1.245-3.509
		l-0.498-2.179l0.996-1.814l-3.362-5.445v-1.694l-0.747-10.647c1.162-0.806,1.949-1.21,2.366-1.21c0.663,0,1.41,0.404,2.241,1.21
		l4.855-6.171l-0.747-4.478l1.245-5.203l-2.988-2.299v-12.342l-4.606,3.509h-2.864l-4.108,2.662l-3.983-0.968l-4.109,0.483
		c-2.241,0-3.361-0.726-3.361-2.178c0-2.42,1.245-5.282,3.735-8.591c2.49-3.307,6.266-6.332,11.329-9.075v-0.484l3.362-0.484
		c1.326-2.338,2.863-3.509,4.606-3.509c0.996-0.402,2.116-1.189,3.361-2.359c1.245-1.168,4.025-2.762,8.342-4.779l3.237,1.693
		l2.614-1.21l3.859-0.968L1162.139,360.669z"/>
	<path fill="#614F2F" stroke="#614F2F" stroke-width="4" stroke-miterlimit="10" d="M1300.959,471.99l-1.618-2.783l-10.459-3.388
		l-5.852-6.171l-1.743-6.776l-2.863-2.178l-3.486-7.986v-6.171l1.743-2.42l-0.747-2.783l0.747-3.146l3.61-6.775l-1.867-5.203
		l1.867-0.969l2.241-6.171l-0.747-6.655l4.109-1.814v-4.478h2.24l1.245-5.202h0.623l1.245-1.694l-1.245-0.968h1.245l0.498-1.573
		v-5.445l7.595-5.445l-0.747-1.21l5.354-7.139h0.498l1.867-3.509l3.237-0.969v-2.299h1.245l0.622-2.904l5.852-6.654l0.996-0.605
		l0.747-1.21c1.825-1.773,2.78-2.822,2.863-3.146l1.245-0.848l2.241-3.872l8.716-7.744l4.108-4.84
		c0.663-0.887,1.494-1.612,2.49-2.178l3.859-2.178l0.498-1.694l6.35-2.178l-0.498-1.09c1.908-1.612,3.61-2.58,5.104-2.903v-0.484
		l1.743-2.783l4.606-1.693c4.065-3.468,7.138-5.524,9.213-6.172l8.093-2.782l2.366,0.968l2.738-0.968h0.872l3.237,0.968l0.747,3.024
		l1.618-0.726l0.747,0.726v1.452l1.743,4.72l0.996,17.908h-0.498l0.498,0.483l-2.739,12.343l-0.747-1.452l-1.12,6.171l0.498,2.541
		l-2.241,2.904h-0.498l-0.249,1.936l0.996,3.509l-1.245,4.235v0.968h-3.113l-2.24,5.688v0.483h-0.498l-6.35,7.503l-2.366,0.968
		l-1.245,3.024l-2.365-1.331l0.623,3.993l-1.121,1.694h-2.241l-0.498-1.21l-5.354-2.178l-2.365-4.961l0.498-3.993l0.871-0.484
		l8.093-21.296l5.603-6.413l1.245-7.261l-1.743-12.826l-6.599-1.814l-5.104,0.484l-3.361,1.814h-0.498l-2.49,3.388l-9.213,5.566
		l-3.61-0.604l-2.739,3.509l0.498,0.483v0.484l-2.864,0.726l-0.498,2.3c-2.24,1.693-4.938,3.913-8.092,6.654
		c-0.333,0.647-1.868,2.541-4.607,5.688v0.484l-2.863,1.814v0.968l-2.988,1.211v1.693h-0.498l-5.852,8.471l0.747,0.968
		l-7.221,13.673l-2.739,0.968v1.21h1.494l-0.747,5.688l-1.743,3.267l-2.365,10.164l-2.49,2.179
		c-0.996,8.954-1.619,13.835-1.868,14.641l3.362,2.299l-0.747,8.35l1.743,7.986c2.406,3.55,3.775,6.857,4.108,9.922l3.61-1.815
		l3.735,4.235l6.474,5.445c4.315,0.968,7.969,1.572,10.957,1.814l5.603-3.024l1.743,2.299l10.956-2.783l3.112,1.452l0.498-0.968
		l16.31-4.72h2.241l8.716-5.687l7.843-2.178l5.853-2.3l7.719-5.203h1.743l2.863-2.178l11.454-11.132l3.611-2.299l-1.868-6.172
		l-7.346-3.509l0.498-2.662l26.52-11.374l0.747-1.089c2.904-0.806,4.606-1.531,5.104-2.178h1.743l1.867,4.477h1.494l-1.494,6.655
		h-1.867l-2.241,4.478v-0.969l-1.245,0.969l-1.369,4.234l-5.604,5.445l-0.497-1.21c-2.658,3.793-4.276,5.85-4.856,6.171v1.694
		l-5.603,3.509c-0.581,0.726-1.163,1.291-1.743,1.694h-2.738l-0.872,1.452c-1.661,0.646-2.988,2.219-3.984,4.719l-7.968,3.751
		l-0.747,0.726l-0.498-0.726c-1.577,0.726-2.947,1.896-4.108,3.509h-0.996l-1.743,2.178l-1.369-0.483L1394.71,449l-4.606,0.484
		l-2.366,2.299c-0.747,0.726-2.822,1.856-6.225,3.388v0.484l-1.868-0.484c-1.079,0.163-2.408,0.889-3.983,2.178l-0.498,2.783
		l-2.366-0.483l-2.241,1.21v0.483h-4.606c-2.241,2.26-4.503,3.833-6.785,4.72c-2.284,0.889-6.661,1.936-13.135,3.146v1.573
		l-5.603-0.484v2.179l-3.113-0.484l-0.996,0.484v0.726h-3.485l-0.623,2.299l-6.848,0.727L1300.959,471.99z"/>
	<path fill="#614F2F" stroke="#614F2F" stroke-width="4" stroke-miterlimit="10" d="M1548.596,353.288
		c0.58-0.161,2.198-0.079,4.856,0.242c2.655,0.323,4.357,0.889,5.104,1.693l4.232-0.968l2.366,0.242l1.743,3.267l-0.249,2.421
		c-1.662,1.291-2.782,2.703-3.362,4.234h-1.245l-1.369,1.452c-0.416,0.404-2.159,1.089-5.229,2.058l-0.249,22.506l1.992,11.616
		l0.249,11.979l1.868,14.642l7.844,20.813c1.41,1.533,2.365,2.743,2.863,3.63c4.149-2.258,6.764-3.389,7.844-3.389
		c3.402-3.79,5.603-5.766,6.599-5.929v-1.331l14.068-11.616l0.249-2.178c0.913-0.161,2.696-1.733,5.354-4.719l4.607,0.968
		l2.489,5.445l-0.996,4.719l-2.489-0.968l-1.245,2.662h-2.366c-0.914,2.42-2.283,4.397-4.108,5.929v1.331l-6.848,6.171l-1.245,3.146
		c-1.577,1.049-4.232,2.461-7.968,4.234l-0.996,1.815l-0.249-0.605l-1.494,2.541l-3.361,0.969l-0.498,1.693h-1.743l0.747,1.815
		l-1.992,3.751l-1.867,0.484c0.165,1.291-1.204,3.669-4.109,7.139l-5.852,0.242l-1.245,3.509l-3.61,0.968
		c-2.739-0.726-4.939-2.38-6.599-4.961l-8.342-13.189l-7.968-17.303l0.747-6.413l-1.743-5.688l1.245-0.241
		c-2.408-4.678-3.61-8.229-3.61-10.648l0.622-4.477l-3.859-2.3l-2.614,1.573v-0.604l-1.245,0.604l-3.362,8.35l-1.743-0.727
		l-0.497,1.694l-1.245-0.484v1.089h-0.498c-0.084,0.484-1.288,2.541-3.611,6.171l-0.996-0.483l-0.746,5.203l-2.615,1.331
		c-1.743,0.889-2.863,1.936-3.361,3.146l-0.996,2.42l1.12,1.452l-2.863,0.968l-1.245,4.962l-2.116,1.089l0.622,0.968
		c-1.992,1.452-3.61,2.42-4.855,2.904l-1.12,1.814l-0.996-1.331l-1.743,4.235h-1.494l-2.116,7.019l-2.241,0.726l-0.249,3.63h-3.61
		l-3.611,7.986l-1.742,1.21h-1.494l-0.498,2.299l-7.969,2.904l-8.342,0.242l-3.61-22.99l1.494-3.025l0.373-2.42
		c0.082-0.645,1.078-3.064,2.988-7.26l-0.498-1.694c1.494-3.307,2.49-5.282,2.988-5.929l-0.996-0.484l2.366-5.929l0.124-2.3
		c0.082-0.645,0.704-2.136,1.867-4.477c-0.665-3.872-1.328-6.09-1.991-6.655l0.995-1.694l3.237,0.484
		c1.908-2.499,3.112-3.83,3.61-3.993l0.747-2.178h0.498l-1.743-2.541l1.494-6.413l0.996,0.484c0.996-2.5,1.619-3.752,1.868-3.752
		l-0.498-3.146l3.485-6.292v-1.694l-0.746-1.452l5.104-10.647l5.852-7.744c1.992-1.694,3.692-3.589,5.104-5.688l4.357-1.693
		l5.852-5.93l5.603-3.267h3.361l2.739-0.727h3.859l1.743-2.783l3.611,0.242h3.61v-0.968c0.996,0.081,2.073,0.484,3.237,1.21
		l3.859-1.452l2.863,0.727l0.747-0.969l2.988,0.969L1548.596,353.288z M1516.475,372.406l-3.113,0.484l-3.859-0.242l-1.245,2.178
		v1.815c-1.328,0.646-2.781,1.21-4.357,1.693l-2.241,5.445c-1.163,4.84-1.867,7.302-2.116,7.381h-1.245l-1.743,3.993l-0.871,3.389
		c-0.249,1.049-1.08,1.896-2.49,2.541l-1.245,4.234l-1.992,3.63c-0.747,1.373-1.12,2.825-1.12,4.356v0.968l-1.245-0.968v1.936
		h-0.747l0.249,1.211l-0.996,2.057l-1.494,6.413l-2.614,5.203l-0.498,7.381l-0.747,1.089h-0.498l-0.498,2.178l0.996,0.969
		l-1.245,4.477H1479l0.498,1.452h-1.868l0.249,8.954l1.121,4.235h0.498l2.739-2.541l7.221-9.923l12.948-16.577l3.859-3.992
		l8.591-13.553l8.965-11.616l0.747-2.541l-1.743-2.178l3.236-5.445l0.747-4.114c0.082-0.402,0.788-1.451,2.117-3.146l0.249-9.68
		l-3.361-0.242h-2.739l-3.611-2.42l-0.746,1.21L1516.475,372.406z"/>
	<path fill="#614F2F" stroke="#614F2F" stroke-width="4" stroke-miterlimit="10" d="M1666.75,360.669
		c1.992,0.889,3.112,2.22,3.361,3.993c-2.241,2.341-3.361,5.729-3.361,10.164v1.815c-0.831,0.807-1.245,1.614-1.245,2.42
		c0,0.889,0.165,1.533,0.498,1.936h0.747l-0.747,3.51l-2.241,0.483l-0.996,3.993h-0.747c0.249,1.373,0.829,2.26,1.743,2.662
		c2.074-0.161,5.395-2.702,9.961-7.623l0.497,0.484l12.7-9.196l2.365-0.484l5.852-3.146l4.606-1.331
		c2.904-2.42,7.471-3.71,13.695-3.872c2.821,1.614,4.688,2.42,5.603,2.42c1.078,0,1.619,0.323,1.619,0.968
		c0,0.565-0.374,2.22-1.121,4.961l-5.354,3.025l-2.988,3.63l-8.715,3.993l-3.237-1.452h-2.365v0.484
		c-5.977,2.259-11.414,3.913-16.31,4.961c-2.325,4.437-6.6,10.245-12.824,17.424c-6.226,7.181-9.422,12.626-9.587,16.335
		l-0.747,17.545l-4.855,7.865l0.498,11.012c-0.333,1.291-0.893,2.643-1.681,4.053c-0.79,1.413-1.351,2.644-1.681,3.691
		c-0.333,1.049-1.494,3.066-3.486,6.05l-2.241,0.604c-0.581,0.08-2.822,1.613-6.723,4.599h-6.35l-2.864,0.968l-4.108-3.872
		c0-2.341,0.872-5.243,2.614-8.712c1.743-3.468,2.739-6.009,2.988-7.623c1.161-7.986,3.319-12.705,6.475-14.157l1.245-3.509
		l-0.498-2.179l0.996-1.814l-3.362-5.445v-1.694l-0.747-10.647c1.162-0.806,1.949-1.21,2.366-1.21c0.663,0,1.41,0.404,2.241,1.21
		l4.855-6.171l-0.747-4.478l1.245-5.203l-2.988-2.299v-12.342l-4.606,3.509h-2.864l-4.108,2.662l-3.983-0.968l-4.109,0.483
		c-2.241,0-3.361-0.726-3.361-2.178c0-2.42,1.245-5.282,3.735-8.591c2.49-3.307,6.266-6.332,11.329-9.075v-0.484l3.362-0.484
		c1.326-2.338,2.863-3.509,4.606-3.509c0.996-0.402,2.116-1.189,3.361-2.359c1.245-1.168,4.025-2.762,8.342-4.779l3.237,1.693
		l2.614-1.21l3.859-0.968L1666.75,360.669z"/>
	<path fill="#614F2F" stroke="#614F2F" stroke-width="4" stroke-miterlimit="10" d="M1829.475,289.884l3.61,0.483l0.498,1.694
		l1.743,0.484l-0.498,4.961v1.814l-1.743,1.694l-0.374,3.872c-0.249,2.341-1.079,4.276-2.49,5.808l1.619,0.969l-2.863,1.21v2.782
		l-2.739,2.662v4.478l-0.872-0.484l-1.494,3.025l-0.622,4.961c-0.084,0.646-0.706,1.775-1.867,3.388l0.747,2.783l-1.121,3.025
		c-0.498,1.291-1.039,2.22-1.618,2.783l-2.615,2.541v4.477l1.245,0.484l-1.245,7.018l0.747,1.452l-3.112,5.203v4.478l-2.241,2.178
		v5.687l-2.863,3.993v2.299l1.12,0.969l-0.622,3.388l1.369,1.815c-1.245,2.501-3.03,4.155-5.354,4.961l-0.498,3.388l1.743,1.089
		l-3.61,2.178l0.498,2.541l-0.498,3.146c4.398-0.321,6.972-0.645,7.719-0.968l2.241,0.968l-10.458,12.463l-3.486,13.553
		l-2.365,1.452l0.498,3.992l-0.996,1.21l0.498,1.815l-0.498,0.968v5.203l0.498,3.268h-0.996l-0.747,2.903l-1.867,1.452h-0.996v6.292
		l2.365,1.21l-2.863,3.993h0.996l-0.498,2.179l1.867,2.299v2.178l1.743,1.694l-0.747,3.993l1.245,2.299v8.833l-1.743,0.483
		l1.743,3.993v3.51l2.241,8.349l7.47,15.609h-0.498l3.984,3.509c2.406,3.791,4.398,6.776,5.977,8.954
		c2.571,1.371,4.065,2.541,4.481,3.509h1.121v1.21l2.489,1.452h1.494l2.366,1.694c3.402-0.808,5.768-2.622,7.097-5.445
		c1.743-0.242,3.859-1.372,6.35-3.388l2.365,3.872l-1.867,0.604v2.179l-2.241,1.21l0.498,2.782v2.179l1.743-0.484v3.993
		l-3.486,1.694l0.747,0.968l-1.743,0.484l-0.871,1.33l0.871,0.969h-1.867l0.498,1.21c-2.076,0.483-4.525,1.652-7.346,3.509
		c-0.831-0.404-2.782-2.299-5.852-5.688l-5.105,1.694l-2.614-3.024l-0.996-2.179l-0.747-0.604c-0.332-0.242-0.644-0.666-0.934-1.271
		c-0.292-0.605-0.644-1.313-1.059-2.118v-2.178l-1.867-2.783v-1.21l-2.241-1.452l-12.699-15.367l-7.719-13.431l0.747-1.694
		l-2.988-4.477l2.241-1.21l-0.996-2.3l-0.747-6.171l-0.996-2.178l-1.37-4.961l-2.24-3.268c-0.333-0.483-0.623-1.735-0.872-3.751
		l-0.871-6.654v-4.961h-0.623l1.37-5.203l-0.747-2.662l-3.362-0.484l0.996-2.299l1.245,0.968l-1.743-7.139l-2.24,2.662l2.24-7.14
		h-1.742v0.484l-1.868-0.484l-5.603,5.445l-0.498-0.484l-3.486,1.694v2.299l-2.863,2.178v1.211h-1.743l-2.116,1.572
		c-0.665,0.484-2.117,0.889-4.357,1.21l0.622,2.662l-2.863,1.815c-0.831,3.228-1.868,5.445-3.112,6.655v1.693l-2.241,1.815v2.662
		l-2.241-0.484l-3.361,6.655l-4.856,1.815l-0.995,2.178l-2.366,0.483v0.848l-3.486,1.452h-0.498
		c-0.83-2.744-1.785-4.559-2.863-5.445v0.968c-1.826-2.42-3.196-3.913-4.108-4.477l-0.747-6.172l0.747-2.782v-1.694
		c-0.582-1.371-1.163-2.299-1.743-2.783l0.996-1.693v-1.694l0.747-3.509l-2.241-2.179l2.241-1.572
		c-1.163-2.339-1.743-4.799-1.743-7.382v-1.693l0.498-2.783l-0.996-2.904l2.241-3.751l-1.245-7.502h1.245l1.12-3.872v-1.815h1.245
		v-11.132l1.743-1.21l0.498-5.445v-2.299h4.108l0.996-6.171l4.108,0.968l2.864-7.139v-2.179l0.747,0.969
		c1.077-1.773,2.406-4.92,3.983-9.438l1.619-1.21v-1.815l0.747,1.815l0.498-3.509l2.241-0.484l1.369-2.783v-1.21l1.743-0.483
		c0.498-1.129,2.779-3.347,6.848-6.655l0.498,0.968l1.867-2.178l2.241,0.726l0.996-0.726v-1.089l1.369,0.483l1.743-4.961
		l5.603,1.573l-0.498-0.484h3.611l-0.872-0.483l1.868-0.605l6.101,0.848l7.346,4.113h-2.49l4.855,1.331v0.969l3.237,3.509
		c0.996,3.469,1.783,5.284,2.365,5.444l1.743-0.604l1.245-3.388l2.365-0.969v-5.687l0.498-1.815l1.743-0.483l-0.498-3.993
		l0.996-1.694l2.863-1.452l-0.996-2.299l0.498-0.726l-2.365-0.969v-22.506l1.867-1.815c0.331-1.612,0.664-2.662,0.996-3.146
		l-0.498-0.847v-6.655l-2.863,1.693l-2.241-0.483c-0.333,0.323-1.369,0.687-3.112,1.089l-0.498,2.178l-3.61,1.694H1792l-2.988-2.178
		l-1.618-4.478l-1.245-0.726l1.245-1.452l-1.245-3.509l1.245-1.694l2.365-0.484l0.498-1.814l2.241-0.484l2.365-3.993h1.245
		l0.498-1.21l9.213-6.655l0.498-0.968h4.108v-1.331l1.245,1.331h1.743l0.498-1.814c1.576-0.242,2.945-0.806,4.108-1.694
		L1829.475,289.884z M1766.974,382.086l-0.996,3.146l-8.093,3.993l-3.61,7.381l-1.743,1.089h-0.498l-1.12,1.694l-0.747-0.484
		l-0.996,2.662l0.996,1.331c-0.666,4.035-1.412,6.413-2.241,7.14v2.178c-1.412,1.049-2.533,2.985-3.361,5.808h-1.245v2.662
		l-1.743,5.203l1.245,2.783c-1.661,4.519-3.031,7.544-4.108,9.075l0.995,1.573v4.477l1.37,1.21l-1.867,2.662l0.497,3.509
		l2.366,2.662v-0.968l1.743,0.968l3.61-1.452l0.996,0.484l6.35-7.381l1.743-0.484v-0.483l3.61-3.51l4.108-1.693l2.739-3.268
		l1.867-0.726l5.852-4.961l7.844-5.688l1.619-4.719c0.165-0.484,1.245-1.734,3.237-3.751c0.663-3.146,1.618-5.524,2.863-7.14
		l-3.61-3.993l-0.498-8.954l-0.498-2.903v-0.969c-0.915-1.21-1.494-2.378-1.743-3.509h-1.868l-0.498,2.662l-2.987-0.483v-2.662
		l-1.121,0.483l-0.498-1.693l-3.485,1.21l-3.611-1.21l-0.498-2.783L1766.974,382.086z"/>
</g>
</svg>
